<svg id="SvgjsSvg1012" width="288" height="288" xmlns="http://www.w3.org/2000/svg" version="1.1" xmlns:xlink="http://www.w3.org/1999/xlink" xmlns:svgjs="http://svgjs.com/svgjs"><defs id="SvgjsDefs1013"></defs><g id="SvgjsG1014"><svg xmlns="http://www.w3.org/2000/svg" width="288" height="288" version="1.0" viewBox="0 0 980 628"><g transform="matrix(.1 0 0 -.1 0 628)" fill="#ffffff" class="color000 svgShape"><path d="M4795 6256 c-44 -14 -1114 -347 -2379 -740 -1908 -593 -2304 -719-2334 -743 -45 -37 -74 -92 -80 -153 -6 -61 31 -146 79 -183 38 -28 21 -23
669 -227 l465 -147 3 -540 2 -541 -27 -18 c-88 -56 -167 -144 -213 -234 -86
-169 -92 -378 -15 -530 l26 -51 -38 -97 -38 -97 -3 -860 c-1 -473 0 -870 3
-882 33 -136 394 -236 736 -205 272 25 448 103 480 212 7 23 9 317 7 880 -4
926 -1 877 -63 1000 -21 41 -22 48 -9 70 7 14 25 61 40 105 66 201 16 426
-128 581 -34 36 -81 79 -105 95 l-43 30 0 445 c0 420 1 445 18 440 9 -3 687
-215 1507 -471 1169 -366 1500 -466 1541 -466 42 0 550 154 2391 726 1286 400
2358 735 2383 746 24 11 53 27 64 37 28 25 66 112 66 151 0 77 -49 164 -108
195 -31 16 -156 55 -2792 881 -1064 334 -1955 608 -1980 611 -30 3 -72 -4
-125 -20z m242 -1347 c396 -44 595 -251 419 -437 -109 -117 -403 -189 -656
-163 -189 20 -340 74 -425 152 -52 48 -75 93 -75 149 0 114 109 209 307 265
145 41 274 52 430 34z" fill="#ffffff" class="color000 svgShape"></path><path d="M2442 2263 c3 -797 3 -809 25 -871 79 -232 327 -419 733 -552 476
-157 1099 -230 1845 -217 540 10 924 53 1310 147 550 133 884 346 978 622 22
62 22 74 25 871 2 562 0 807 -8 807 -6 0 -540 -164 -1187 -365 -647 -201
-1199 -368 -1227 -371 -71 -8 -111 1 -456 109 -876 274 -2020 627 -2030 627
-8 0 -10 -220 -8 -807z" fill="#ffffff" class="color000 svgShape"></path></g></svg></g></svg>