<svg id="SvgjsSvg1011" width="288" height="288" xmlns="http://www.w3.org/2000/svg" version="1.1" xmlns:xlink="http://www.w3.org/1999/xlink" xmlns:svgjs="http://svgjs.com/svgjs"><defs id="SvgjsDefs1012"></defs><g id="SvgjsG1013"><svg xmlns="http://www.w3.org/2000/svg" width="288" height="288" version="1.0" viewBox="0 0 375 375"><path d="M1052 3249 c-155 -30 -273 -152 -302 -311 -7 -36 -10 -419 -8 -1094l3 -1039 23 -57 c41 -102 118 -179 220 -220 l57 -23 825 0 825 0 57 23 c102
41 179 118 220 220 l23 57 3 710 c2 391 0 730 -3 755 -6 44 -20 59 -473 511
-387 386 -473 468 -501 473 -50 9 -919 5 -969 -5z m820 -649 l3 -400 33 -32
32 -33 400 -3 400 -3 0 -650 0 -651 -34 -34 -34 -34 -802 0 -802 0 -34 34 -34
34 0 1052 0 1052 34 34 34 34 401 0 400 0 3 -400z m473 0 l220 -220 -223 0
-222 0 0 220 c0 121 1 220 3 220 1 0 101 -99 222 -220z" transform="matrix(.1 0 0 -.1 0 375)" fill="#ffffff" class="color000 svgShape"></path></svg></g></svg>