<svg id="SvgjsSvg1019" width="288" height="288" xmlns="http://www.w3.org/2000/svg" version="1.1" xmlns:xlink="http://www.w3.org/1999/xlink" xmlns:svgjs="http://svgjs.com/svgjs"><defs id="SvgjsDefs1020"></defs><g id="SvgjsG1021"><svg xmlns="http://www.w3.org/2000/svg" width="288" height="288" version="1.0" viewBox="0 0 835 732"><g transform="matrix(.1 0 0 -.1 0 732)" fill="#ffffff" class="color000 svgShape"><path d="M3393 7299 c-356 -32 -702 -328 -807 -690 -28 -97 -46 -284 -46 -474l0 -122 -1081 -6 -1081 -7 -81 -42 c-103 -55 -179 -130 -238 -236 l-47 -83 -7
-662 c-9 -877 -1 -2402 14 -2482 27 -140 126 -262 284 -347 l88 -48 1498 0
1498 0 7 238 c4 130 12 257 17 281 28 126 154 279 284 342 l70 34 410 0 410 0
70 -35 c98 -49 200 -152 250 -253 l38 -76 8 -193 c4 -106 8 -226 9 -265 l0
-73 1501 0 1501 0 86 48 c115 62 195 142 250 249 l42 81 0 1579 0 1578 -48 85
c-60 108 -125 173 -233 233 l-86 47 -1082 7 -1081 6 0 96 c-1 303 -34 510
-105 651 -113 225 -330 418 -556 495 -156 54 -183 55 -953 54 -391 -1 -752 -5
-803 -10z m1670 -431 c136 -70 226 -158 286 -279 50 -101 58 -152 63 -406 l3
-173 -1242 0 -1242 0 5 188 c3 103 9 215 14 250 30 218 260 438 481 462 41 4
402 8 802 9 l729 1 101 -52z" fill="#ffffff" class="color000 svgShape"></path><path d="M3810 2724 c-45 -20 -106 -78 -133 -129 -22 -40 -22 -43 -20 -592 1
-313 7 -579 12 -614 13 -81 51 -136 117 -169 l49 -25 340 0 c333 0 341 0 385
23 25 12 60 42 78 67 31 40 35 53 43 142 10 120 11 964 0 1086 -7 74 -12 94
-38 130 -18 25 -49 52 -79 67 l-49 25 -335 2 c-285 3 -340 1 -370 -13z" fill="#ffffff" class="color000 svgShape"></path><path d="M267 1833 c-10 -9 -8 -1327 2 -1454 10 -128 29 -167 127 -258 107
-101 71 -94 544 -102 526 -9 5915 -9 6470 -1 l415 7 52 33 c64 41 153 135 178
188 28 59 36 288 33 984 l-3 605 -1558 3 c-1241 2 -1558 0 -1562 -10 -2 -7 -8
-128 -13 -269 l-10 -257 -37 -78 c-50 -104 -139 -193 -253 -252 l-82 -43 -403
3 -402 3 -70 35 c-89 44 -208 161 -248 242 -38 78 -46 136 -55 398 l-7 225
-1556 3 c-855 1 -1559 -1 -1562 -5z" fill="#ffffff" class="color000 svgShape"></path></g></svg></g></svg>