<?xml version="1.0" encoding="UTF-8" standalone="no"?>
<svg xmlns:rdf="http://www.w3.org/1999/02/22-rdf-syntax-ns#" xmlns="http://www.w3.org/2000/svg" xml:space="preserve" height="246.66" width="191.3" version="1.1" xmlns:cc="http://creativecommons.org/ns#" xmlns:dc="http://purl.org/dc/elements/1.1/" viewBox="0 0 191.29707 246.65978"><g transform="matrix(.75 0 0 .75 .60040 .64945)"><path d="m1.1934 0.80469v31.404l8.0039-0.0078v53.338l-8.0039 0.02344v30.916h50.23v-30.891h-7.4199v-10.221l25.684 0.05273v-30.059l-25.684-0.05078v-13.17h14.486v7.2422h34.703v-38.578h-92zm97.234 0v31.334h7.8828v53.58h-7.8828v30.738h50.223v-30.738h-7.6406v-53.58h7.7012v-31.334h-50.283zm55.354 0v31.336h7.6191v62.047l21.24 22.301h41.68l21.1-22.301v-62.047h7.7695v-31.336l-47.85 0.003906v31.334l5.3809-0.0078v53.469h-14.49v-53.461h4.8106v-31.338h-47.26z" transform="translate(0 -.00044250)" stroke="#b6862c" stroke-width="0.4" fill="#b6862c"/><path d="m4.9277 4.5312v23.867h7.9863 0.0625v60.965h-0.0625-7.9805v23.365h42.809v-23.365h-7.541v-0.02539-17.812-0.04102h25.65v-22.357h-25.65v-20.711-0.01758h22.357 0.04102v7.2148h26.721v-31.082h-84.393zm97.232 0v23.867h7.8691 0.01v59.818l-0.01 1.0312h-7.6992v5.418c-3.735 2.216-7.5187 5.3523-9.9707 6.8223-3.742 2.27-9.5473 6.0603-11.695 7.8203-2.025 1.66-4.7633 4.0486-7.1973 6.5586-0.279 0.34-0.62927 0.72086-1.0723 1.1309-2.154 2-4.2901 4.3507-6.2891 6.7207-0.251-0.16-0.4842-0.31117-0.6582-0.45117-0.568-0.43-1.4981-1.2601-3.1211-1.3301-1.639 0.03-3.0304 0.99008-3.7324 2.0801-0.514 0.78-1.3636 1.9303-1.9336 3.5703-0.425 1.23-0.43455 2.4207-0.43555 3.4707v0.44922c0.013 1.47 0.25134 3.071 0.65234 4.541-0.698 1.03-1.084 1.6387-1.084 1.6387-11.93 17.32-15.896 52.911-15.912 76.881 0 2.6 0.04372 5.0598 0.13672 7.3398 0.248 6.4 0.71955 12.291 4.9355 20.881 10.806 22.03 18.916 34.688 24.938 43.988-2.327 2.51-3.4668 5.1515-3.8438 6.5215-0.048 0.18-0.10053 0.28937-0.14453 0.35937-0.033 0.01-0.17716 0.01-0.41016 0.01-0.766 0.02-6.8743 0.76976-11.156 6.7598-1.924 2.7-2.6221 5.4096-2.6191 7.8496 0.007 4.18 1.9919 7.4802 3.2109 8.9102 1.01 4.52 3.5985 7.9308 4.3105 8.8008 0.393 0.46 0.7478 0.80008 1.3418 0.83008 0.405 0 0.74858-0.28078 0.89258-0.55078 0.156-0.28 0.22481-0.58039 0.25781-0.90039 0.033-0.37 0.38625-2.0184 0.90625-3.8184 4.435 2.76 13.661 3.7601 17.459 3.8301 0.125 0.01 0.24423 0.01 0.36524 0.01 9.605 0.01 13.484-4.2209 17.777-6.2109 3.542-1.66 6.1116-3.3591 11.852-3.3691 2.22 0 4.9108 0.27016 8.3008 0.91016 1.3 0.24 2.5292 0.34961 3.6992 0.34961 6.23 0 10.62-3.0394 12.43-4.3594 0.79-0.58 1.7801-1.3099 2.8301-2.1699 0.09 0.38 0.16976 0.79938 0.25977 1.3594 0.06 0.37 0.1696 0.71953 0.3496 1.0195 0.18 0.3 0.49977 0.62062 1.0098 0.64062 0.75-0.06 1.1109-0.61132 1.4609-1.3613 0.19-0.44 1.5507-3.2398 2.2207-6.7598 0.26-0.31 0.51023-0.63875 0.74023-0.96875 1.6-2.22 2.3887-4.9912 2.3887-7.7812 0-2.94-0.87993-5.9086-2.6699-8.3086-2.45-3.26-6.6888-5.5107-11.469-5.7207-0.09 0-0.18148-0.01-0.27148-0.01-0.21 0-0.39859 0.01-0.55859 0.01-0.62-0.04-0.90172 0.0195-1.7617-1.0605-3.14-4.13-8.2786-8.069-15.559-9.209-2.92-6.35-8.0805-14.471-12.23-20.551 0.53-2.42 1.2406-5.4591 1.8906-8.3691 0.43 0.27 0.87008 0.53 1.3301 0.75 1.33 0.56 2.7886 0.94852 4.3086 1.2285l1.8906 0.29101c2.26 0.29 4.5096 0.36914 6.3496 0.36914h0.71093 0.33008c0.97 0 1.9891-0.0389 3.0391-0.1289 0.09-0.01 0.15015-0.0195 0.16015-0.0195 1.15-0.12 2.3503-0.31109 3.5703-0.62109 1.91-0.5 3.9906-1.2896 5.8906-2.5996 0.93-0.61 1.8189-1.3502 2.6289-2.2402 2.99-3.24 3.8111-7.0709 4.1211-9.8809 0.3-2.69 0.46945-5.0098 0.68945-6.0098 0.28-1.31 1.039-4.1691 1.709-7.0391 0.32-1.41 0.64062-2.7806 0.89062-3.8906 0.26-1.04 0.48-1.9388 0.5-2.0488 0.06-0.24 0.11016-0.44086 0.16016-0.63086 1.06-0.43 1.8807-0.9693 2.7207-1.5293 0.13-0.09 0.25867-0.17977 0.38867-0.25977 4.08-2.8 6.7608-7.5505 11.301-9.7305 1.86-0.9 3.8895-0.69094 5.9395-0.21094 2.06 0.48 4.2995 1.6198 6.5195 1.5898 3.13-0.05 4.3299-0.89875 7.1699 0.28125 2.81 1.16 5.8902 1.6389 8.6602 2.8789 3.65 1.64 7.0002 4.0802 11.16 4.1602h0.6211 0.36914c-0.11 0.23-0.23914 0.44993-0.36914 0.66993-0.14 0.23-0.38039 0.63046-0.40039 1.2305 0 0.27001 0.0601 0.73993 0.41015 1.1699 0.41 0.46 0.92008 0.59937 1.3301 0.60937 0.37 0 0.67969-0.0799 0.92969-0.16992 1.8-0.75 3.3295-1.9394 4.5195-3.4394 0.95-0.26 1.7712-0.68969 2.4512-1.1797 1.1-0.82 1.8501-1.7696 2.3301-2.5996 1.13-1.98 1.7894-4.3297 1.8594-6.6797 0.01-0.1 0.01-0.21101 0.01-0.29101 0-0.89-0.0803-1.7892-0.32031-2.6992l-0.0899-0.35156c-0.03-0.08-0.0601-0.16-0.0801-0.25l-0.21876-0.59961c-1.06-2.71-3.2904-6.0391-7.1504-8.1191-1.24-2.94-3.1501-5.4101-5.0801-7.3301-2.23-2.18-4.4096-3.7099-6.3496-4.4199-0.04-0.02-0.0811-0.031-0.1211-0.041 2.28-4.15 8.1808-15.749 10.551-29.539 1.12-6.56 1.9193-11.17 2.2793-14.85 0.09-1.02 0.15969-1.9611 0.17969-2.8711 0.01-0.27 0.01-0.54054 0.01-0.81054 0-1.2-0.0893-2.3297-0.27929-3.4297-0.4-2.23-1.3702-4.2201-2.6602-5.8301-1.06-1.34-2.4594-2.5489-4.1894-3.6289h26.65l19.199-20.102 0.01-64.223 0.0293-0.0059h7.6816v-23.867h-40.221v23.867h5.2891v58.633h0.0117l-2.2012 2.332-17.639-0.01172-2.2109-2.2852-0.0195-58.662v-0.0059h4.5293v-23.867h-39.459v23.867h7.709v64.229l14.291 14.982c-1.04-0.15001-2.12-0.28063-3.25-0.39063-1.43-0.14-3.1113-0.24102-4.8613-0.29102-1.03-0.03-2.0789-0.0391-3.1289-0.0391-2.56 0-5.0402 0.0893-6.9102 0.2793-1.4 0.15-2.6297 0.46969-4.9297 0.92969-1.44-1.63-3.72-3.3094-5.5-5.1094-1.53-1.53-3.5599-3.1169-5.9199-4.6289v-9.1113h-7.7207v-0.8418-59.99-0.01758h7.7207v-23.867h-42.82z" fill="#081e3f" transform="translate(0 -.00044250)"/><path d="m119.54 97.799c-6.85-0.032-12.499 3.0298-15.469 4.5098-3.66 1.83-11.802 6.0391-15.457 8.2891-3.467 2.14-13.109 8.6212-14.094 9.2812-1.678 1.72-3.5818 4.0584-5.4668 6.5684 0.751 0.38 1.6251 0.63062 2.7891 0.64062 0.546 0 1.1563-0.0499 1.8203-0.16992 1.544-0.27 2.3263-0.34047 3.8613-0.73047 1.498-0.37 7.0764-2.4204 14.191-5.6504 1.26-0.7 2.7607-1.3984 4.5547-2.0684 0.988-0.32 2.032-0.65172 3.127-1.0117 0.834-0.24 4.9527-1.3789 4.9727-1.3789 4.19-0.98 8.1902-1.3711 11.91-1.3711 9.44 0 17.082 2.5512 21.852 4.7012l0.0293 0.0195c2.21 1 3.8002 1.9095 4.6602 2.4395 3.33 1.6 8.0198 3.5512 12.51 4.4512 0.47 0.08 0.9507 0.16976 1.4707 0.25976 0.68 0.12001 1.2996 0.16993 1.8496 0.16993 3.55-0.02 5.1392-1.9106 6.9492-3.3906 0.56-0.44 1.2912-1.0791 2.5312-1.1191h0.0293c1.29 0 2.2105 0.85992 2.7305 1.6699 0.55001 0.86 0.99977 1.9104 1.5098 3.4004 0.42 1.22 0.59961 2.4402 0.59961 3.6602-0.04 4.28-2.1801 8.1701-4.5801 11.33-0.06 0.2-0.11922 0.40914-0.19922 0.61914-0.08 0.27-0.17125 0.52906-0.28125 0.78906-0.34 0.91-0.89867 1.8004-1.6387 2.6504-0.59 0.7-1.281 1.3698-2.041 2.0098-0.58 0.58-1.2503 1.1803-2.0703 1.8203s-1.4494 1.1105-1.9394 1.4805c0.1 0.27 0.18906 0.52906 0.28906 0.78906 0.12 0.35 0.24157 0.69125 0.35156 1.0312 0.09 0.26 0.16024 0.5 0.24024 0.75 0.25 0.84 0.48 1.6606 0.75 2.6406 0.04 0.14 0.0691 0.27968 0.11914 0.42968 0.18 0.65 0.39086 1.369 0.63086 2.209 0.27 0.97 0.49922 2.0404 0.69922 3.1504 1.67 4.97 2.3394 9.3491 2.4394 13.119l2.7207-1.6387c0.42-0.18 0.84883-0.34977 1.2988-0.50977 0.49-0.16 1.011-0.30992 1.541-0.41992 0.05-0.02 0.10015-0.0312 0.16015-0.0312 0.03-0.01 0.0501-0.01 0.0801-0.0195 0.25-0.04 0.49024-0.0894 0.74024-0.10938 0.05-0.01 0.11992-0.0115 0.16992-0.0215 0.69-0.08 1.5902-0.16898 2.2402-0.20899h0.0801c0.1-0.01 0.19906-0.0195 0.28906-0.0195h0.01 0.0195c0.09 0 0.18023 0.01 0.24024 0.01 1.02 0.1 1.9412 0.28984 2.7812 0.58984 0.34001 0.12 0.68024 0.26969 0.99024 0.42969l-0.23047-0.11914c0.48-0.64 1.1899-1.1909 1.6699-1.8809 0.49-0.71 0.96016-1.449 1.4102-2.209 0.03-0.04 0.0601-0.0811 0.0801-0.1211 0.01-0.01 0.0195-0.0193 0.0195-0.0293 0.3-0.5 0.59086-1.0212 0.88086-1.5312 0.54-0.97 1.0584-1.97 1.5684-3 0.22-0.46 0.43015-0.93016 0.66015-1.4102 1.13-2.46 2.1406-5.0492 3.0606-7.6992 0.77-2.24 1.4791-4.5203 2.1191-6.8203 0.38-1.34 0.73031-2.6991 1.0703-4.0391 1-4.04 1.8107-8.0198 2.4707-11.76 0.2-1.12 0.37906-2.2208 0.53906-3.3008 0.12-0.76 0.24156-1.5105 0.35156-2.2305 0.03-0.22 0.0486-0.42891 0.0586-0.62891 0.03-0.34 0.0408-0.66046 0.0508-0.98047v-0.041c0-0.17 0.00023-0.34-0.01-0.5v-0.01c-0.02-1.07-0.19945-1.9991-0.43945-2.7891-0.08-0.23-0.15-0.45992-0.25-0.66992-0.25-0.64-0.55157-1.1598-0.85156-1.5898-0.04-0.04-0.0598-0.0909-0.0898-0.13086-0.02-0.02-0.0288-0.0406-0.0488-0.0606-0.04-0.06-0.0809-0.11992-0.13086-0.16992-0.64-0.81-1.1992-1.1699-1.1992-1.1699-1.24-0.85-2.6602-1.5885-4.2402-2.2285-0.23-0.09-0.44969-0.17172-0.67969-0.26172-0.61-0.23-1.2404-0.4482-1.9004-0.6582-0.27-0.08-0.52101-0.15024-0.79101-0.24024-0.93-0.27-1.8889-0.52023-2.8789-0.74023-1.29-0.29-2.6207-0.53977-3.9707-0.75977-5.87-0.94-12.14-1.23-17.34-1.25h-1.5293c-0.51 0.01-1.0009 0.0193-1.4609 0.0293h-0.0488c-1.71 0.03-3.2415 0.0809-4.5215 0.13086-2.25 0.1-3.7288 0.21828-4.0488 0.23828h-0.0312c-0.06 0.01-0.11992 0.0212-0.16992 0.0312-0.1 0.01-0.1893 0.0291-0.2793 0.0391-0.34 0.06-0.69055 0.10993-1.0606 0.16993-4.08 0.66-6.2103 0.8814-7.3203 0.9414-5.42 0.59-3.8594-0.041-3.8594-0.041 1.34-0.41 3.7509-1.1089 6.4609-1.8789l4.1191-1.1602c-0.01-0.01-12.911-10.831-21.891-12.936-1.69-0.394-3.3302-0.56722-4.9102-0.57422zm-60.02 42.581c-0.46 0.71-0.72066 1.1191-0.72266 1.1191-0.929 1.45-1.803 3.0402-2.623 4.7402-6.901 14.35-9.7607 36.581-11.096 49.311-0.844 8.05-0.27245 22.438 0.81055 31.568 0.546 4.64 1.2049 8.0401 1.9629 10.08 2.138 5.7 7.3753 17.301 8.7363 19.441 1.645 2.58 12.707 23.009 13.391 23.959 0.732 1.01 0.95936 0.73 0.94336 0-0.019-0.74-0.16394-4.5802 0.16406-7.2402 0.111-0.86 0.46822-2.4787 1.1992-3.3887 0.504-0.61 1.2739-0.64016 0.91992 0.58984-0.649 2.23 0.60705 8.1596 2.373 12.6 0.056 0.14 0.15792 0.13985 0.29492 0.0898 0.498-0.22 1.0184-0.43914 1.5684-0.61914 6.455-2.17 10.62-1.3506 13.498-0.56055 0.313 0.08 0.485-0.0798 0.625-0.25977 1.669-2.06 5.5255-5.6604 10.855-7.6504-0.11 0.04-0.16992 0.0605-0.16992 0.0605s-2.5391-9.8305-3.8711-13.98c-1.335-4.14-4.2246-9.5494-5.3516-11.939-1.125-2.39-1.1987-6.1213-0.8457-7.1113s3.0664 1.6699 3.0664 1.6699 0.08694-0.76953 0.46094-1.5195c0.352-0.7 1.6133-5.5801 1.6133-5.5801 0.089 0.32 0.40488 0.84969 0.79688 1.4297-0.67-1.13-1.2642-2.3091-1.7812-3.5391-1.758-4.13-2.7265-8.5913-3.4785-11.861-0.535-2.39-2.7535-6.4786-3.0605-7.0586-0.019-0.04-0.0222-0.0403-0.0332-0.0703-0.012-0.01-0.03464-0.0405-0.05664-0.0605-0.053-0.07-0.13247-0.17883-0.23047-0.29883-0.21-0.24-0.48792-0.58117-0.79492-0.95117-0.367-0.43-0.77291-0.91032-1.1289-1.3203-0.112-0.12-0.24005-0.25843-0.37305-0.39843-0.312-0.3-1.2238-1.1912-1.5098-1.4512-0.334-0.31-0.61473-0.54898-0.80273-0.70898-0.189-0.17-0.29183-0.25172-0.29883-0.26172-0.105-0.08-0.21259-0.18-0.30859-0.25-0.408-0.36-0.84011-0.72937-1.2871-1.1094-0.932-0.8-1.9173-1.6402-2.9023-2.4902-0.316-0.26-0.62359-0.52906-0.93359-0.78906-0.088-0.06-0.16972-0.10969-0.26172-0.17969-1.066-0.7-2.5637-1.7811-4.6387-3.3711-10.663-8.18-12.285-17.5-12.279-22.34 0-0.68 0.03331-1.2698 0.07031-1.7598-0.003-0.24-0.02344-0.49024-0.02344-0.74024 0-0.09 0.00086-0.17 0.0059-0.25 0.015-0.15 0.01444-0.29898 0.02344-0.45898 0.003-0.04 0.002-0.0806 0.002-0.14063v-0.0703l0.0098-0.01c0.016-0.2 0.03569-0.40985 0.05469-0.58985 0.038-0.53 0.10764-1.0912 0.18164-1.7012 0.004-0.03 0.01367-0.0598 0.01367-0.0898 0.006-0.02 0.0059-0.0384 0.0059-0.0684 0.027-0.19 0.06194-0.43039 0.08594-0.65039 0.035-0.24 0.06156-0.47047 0.10156-0.73047 0.004-0.07 0.01444-0.11992 0.02344-0.16992 0.105-0.8 0.27166-1.6703 0.47266-2.5703 0.067-0.24 0.1235-0.5 0.1875-0.75 0.034-0.12 0.0598-0.23914 0.0918-0.36914 0.435-1.71 0.96542-3.4997 1.4824-5.1797 0.05-0.15 0.10544-0.31094 0.14844-0.46094 0.012-0.03 0.01925-0.0696 0.03125-0.0996 0.195-0.62 0.38822-1.2 0.57422-1.75 0.095-0.3 0.20006-0.61086 0.28906-0.88086 0.024-0.07 0.04913-0.14875 0.07813-0.21875 0.034-0.11 0.07833-0.22984 0.11133-0.33984 0.233-0.7 0.43708-1.2619 0.58008-1.6719 0.027-0.08 0.05208-0.16828 0.08008-0.23828 0.037-0.12 0.08047-0.22102 0.10547-0.29102v-0.0195h0.0059v-0.01c0.014-0.03 0.01839-0.0606 0.02539-0.0606 0.024-0.05 0.03211-0.0798 0.03711-0.0898v-0.0195h0.002l0.0078-0.0215 0.01367-0.01v-0.01-0.01l0.01758-0.0488 0.0098-0.0117c0.056-0.14 0.14314-0.38016 0.24414-0.66016 0.129-0.37 0.27917-0.81812 0.45117-1.3281l0.0059-0.0117 0.72656-1.7988c-7.164-5.18-8.0631-10.201-8.1641-11.031-0.208-0.3-0.41138-0.5982-0.60938-0.9082z" transform="translate(0 -.00044250)" stroke="#b6862c" stroke-width="0.4" fill="#b6862c"/><path d="m174 175.86c-1.44 0.07-2.8806 0.52055-4.1406 1.0606-0.46001 0.19-0.90961 0.41062-1.3496 0.64062l-2.3398 1.0801s-0.7407 4.7499-1.4707 7.1699c0 0 0.62 1.3684 2 1.8984 1.14 0.43 1.1214-1.5498 1.9414-2.5098v0.0605c0.21001-0.2 0.41938-0.37 0.60938-0.5 0.51-0.33 1.0202-0.47023 1.4902-0.49023 0.25-0.01 0.50047 0.0105 0.73047 0.0605 0.54 0.1 0.99985 0.31977 1.3398 0.50977 0.03 0.02 0.0791 0.0501 0.11914 0.0801 0.05 0.03 0.10039 0.0696 0.15039 0.0996 0.32 0.25 0.57906 0.59976 0.78906 1.0098 0.17 0.32 0.30086 0.68032 0.38086 1.0703 0.22 1.09 0.0709 2.3705-0.61914 3.4805 0.34 0.04 0.83844 0.0505 1.3984-0.0195 0.31-0.03 0.63117-0.0897 0.95117-0.17968 0.12-0.03 0.22961-0.0713 0.34961-0.11133 0.49-0.16 0.97898-0.39024 1.459-0.74024 0.29-0.22 0.59157-0.47906 0.85156-0.78906 0.04-0.12 0.0889-0.23031 0.12891-0.32031 0-0.02 0.0195-0.0408 0.0195-0.0508 0.08-0.13 0.16172-0.14985 0.26172-0.0898 0.17 0.1 0.35844 0.4511 0.39844 0.6211 0.19 0.63 0.52117 1.2486 0.95117 1.8086 0.18 0.23 0.36984 0.45188 0.58984 0.67188 0.63 0.64 1.3704 1.2194 2.1504 1.6894 0.01 0 0.01 0.01 0.01 0.01 0.02 0 0.0195-0.00023 0.0195 0.01 0.25 0.15 0.50977 0.28016 0.75977 0.41016 0.03 0.01 0.0501 0.0291 0.0801 0.0391 0.03 0.02 0.0601 0.031 0.0801 0.041 0.25 0.12001 0.5 0.23985 0.75 0.33985-0.07-0.34-0.16047-0.64969-0.23046-0.92969-0.07-0.26-0.13922-0.51094-0.19922-0.71094-0.04-0.14-0.0699-0.26914-0.0898-0.36914-0.6-1.89 0.10899-3.5501 1.459-4.3301 0.2-0.11 0.41086-0.19953 0.63086-0.26953 0.15-0.05 0.29898-0.10086 0.45898-0.13086 0.21-0.05 0.44141-0.0588 0.69141-0.0488 0.48 0.02 1.0193 0.13843 1.5293 0.39843 1.26 0.63 2.3693 2.0601 2.2793 4.5801-0.04 0.85-0.18891 1.6306-0.37891 2.3906-0.07 0.26-0.12093 0.53929-0.21093 0.77929-0.17 0.53-0.36961 1.02-0.59961 1.5 0.28 0.06 1.1812 0.22094 2.2012 0.21094 0.14-0.01 0.28945-0.01 0.43945-0.0195 0.44-0.06 0.90063-0.15172 1.3906-0.26172 0.04-0.01 0.0794-0.0195 0.10937-0.0195h0.0195c0.04-0.01 0.0811-0.0195 0.1211-0.0195 0.22-0.08 0.4289-0.17906 0.6289-0.28906 0.13-0.08 0.23961-0.15024 0.34961-0.24024 0 0 0.021 0.009 0.041 0.0488 0.05 0.06 0.10937 0.19133 0.10937 0.36133 0.01 0.09 0.00094 0.17883-0.0391 0.29883-0.04 0.12-0.0508 0.25086-0.0508 0.38086-0.02 0.06-0.0391 0.10968-0.0391 0.17968-0.01 0.66 0.2382 1.4995 0.6582 2.2695 0.34 0.65 0.80133 1.2504 1.3613 1.6504 0.23 0.15001 0.45922 0.28891 0.69922 0.37891-0.05-0.28-0.05-0.56984 0-0.83984 0-0.08 0.021-0.14852 0.041-0.22852 0.17-0.68 0.61016-1.3098 1.1602-1.7598 0.33-0.28 0.71008-0.49086 1.0801-0.63086 0.32-0.1 0.63922-0.17039 0.94922-0.15039 0.18 0 0.34976 0.0394 0.50976 0.10937 0.11 0.04 0.22031 0.0804 0.32031 0.15039 0.6 0.4 1.0688 0.98125 1.2988 1.7812 0.09 0.26 0.14188 0.54961 0.17188 0.84961l0.0293-0.041h0.01c0-0.01 0.01-0.01 0.0195-0.01 0-0.01 0.01-0.01 0.0195-0.0195 0.1-0.07 0.31078-0.24055 0.55078-0.56055 0.2-0.26 0.41985-0.61937 0.58985-1.1094 0.02-0.07 0.0405-0.15071 0.0605-0.22071 0.1-0.32 0.18071-0.66031 0.22071-1.0703-0.01-0.12-0.0215-0.25867-0.0215-0.38867-0.02-0.14-0.0291-0.26992-0.0391-0.41992-0.04-0.2-0.0904-0.40961-0.15039-0.59961-0.8-2.98-2.8297-4.9008-5.9297-7.0508-0.03 0.19-0.13047 0.4507-0.23047 0.7207-0.07 0.15-0.12898 0.29922-0.20898 0.44922-0.22 0.44-0.50149 0.88015-0.77148 1.1602-0.09 0.11001-0.18954 0.18024-0.26954 0.24024-0.11 0.07-0.19953 0.11961-0.26953 0.0996-0.01 0-0.01-0.01-0.0195-0.01-0.01 0-0.0213-0.01-0.0312-0.01-0.01-0.01-0.0193-0.021-0.0293-0.041-0.03-0.04-0.0508-0.11898-0.0508-0.20898 0-0.04-0.00023-0.0909 0.01-0.13086 0-0.07 0.021-0.15024 0.041-0.24024 0.01-0.06 0.0193-0.10015 0.0293-0.16015 0.13-0.45 0.18016-0.94828 0.16016-1.4883-0.05-1.8-0.82907-4.0613-2.2891-6.1113-0.21-0.31-0.42992-0.58914-0.66992-0.86914-0.1-0.12-0.21054-0.25133-0.31054-0.36133-0.1-0.12-0.21032-0.23961-0.32032-0.34961-0.19-0.21-0.39937-0.40961-0.60937-0.59961-1.5-1.39-3.3809-2.5098-5.6309-3.0898-0.39-0.09-0.78899-0.15039-1.209-0.15039-0.12999 0-0.27992-0.00024-0.41992 0.01-0.04 0-0.0904 0.01-0.15039 0.01-0.13 0.01-0.27015 0.031-0.41015 0.041h-0.01-0.0195c-0.12 0.02-0.23156 0.0405-0.35156 0.0606-0.07 0.01-0.11969 0.0193-0.17969 0.0293-0.14 0.02-0.28945 0.0596-0.43945 0.0996s-0.29946 0.0696-0.43946 0.0996c-0.11 0.03-0.21054 0.0716-0.31054 0.10156-0.1 0.03-0.21055 0.0601-0.31055 0.0801-0.35 0.12-0.68023 0.2489-0.99023 0.3789-0.38 0.16-0.71024 0.31094-0.99024 0.46094-0.38 0.21-0.66 0.38828-0.75 0.48828-0.11 0.11-0.18852 0.18094-0.22852 0.21094-0.15 0.12-0.1107-0.0601-0.2207-0.33008-0.14-0.34-0.28922-0.64945-0.44922-0.93945-0.98-1.8-2.2714-2.7196-3.6914-3.0996-0.2-0.05-0.39961-0.0911-0.59961-0.1211-0.24-0.04-0.47875-0.0603-0.71875-0.0703s-0.48094-0.01-0.71094 0zm-35.439 7.5508c-0.29 0-0.54102 0.01-0.79102 0.0195-2.11 0.07-2.9391 0.51961-3.3691 2.3496-0.42 1.78-1.4101 3.6104-2.8301 4.9004-0.2 0.19-0.41062 0.35954-0.64062 0.51954-0.24 0.19-0.5093 0.35-0.7793 0.5-0.18 0.09-0.33023 0.17976-0.49023 0.25976-0.12 0.06-0.24961 0.14117-0.34961 0.20117-0.21 0.11-0.38032 0.21055-0.57032 0.31055-0.24 0.15-0.49117 0.28969-0.70117 0.42969-0.43 0.27-0.81968 0.53961-1.1797 0.84961-0.42001 0.33-0.81954 0.71898-1.2695 1.209-1.45 1.55-2.4104 2.0115-3.6504 2.7715-0.5 0.31-0.87039 0.77984-1.1504 1.3398-0.4 0.82-0.5982 1.8487-0.6582 2.8887-0.09 1.74 2.1993 2.23 6.2793 3 0.25 0.05 0.51 0.10039 0.75 0.15039 0.24 0.04 0.4907 0.0713 0.7207 0.11133 0.82 0.14 1.6297 0.25008 2.4297 0.33008 2.64 0.31 5.0403 0.3282 6.5703-0.0918 2.11-0.58 4.0791-1.0295 5.5391-2.7695 0.11-0.13 0.20102-0.24914 0.29102-0.36914 0.47-0.63 0.88851-1.4703 1.2285-2.3203 0.04-0.12 0.0906-0.23961 0.14063-0.34961 0.68-1.77 1.0897-3.5599 1.1797-3.9199 0-0.01 0.01-0.021 0.01-0.041v-0.0195-0.0606c-0.01-0.03-0.0386-0.0503-0.0586-0.0703-0.06-0.07-0.16-0.0998-0.25-0.0898h-0.14063-0.0801c-0.16-0.02-0.57015-0.0486-0.91015-0.0586h-0.23047c-0.46 0.02-1.2801 0.10852-2.0801 0.22852-0.11 0.02-0.22984 0.0308-0.33984 0.0508-0.35 0.05-0.68875 0.10992-0.96875 0.16992-0.56 0.12-1.3019 0.29031-1.9219 0.32031-0.11 0.01-0.19883 0.00024-0.29883-0.01-0.47-0.01-0.81961-0.13977-0.84961-0.50977-0.01-0.06-0.01-0.10992-0.01-0.16992 0-0.44 0.19828-0.82109 0.73828-1.1211 0.41-0.24 1.0202-0.42055 1.9102-0.56055 1.08-0.17 2.2498-0.19969 3.2598-0.17969 0.33 0.01 0.64164 0.0113 0.93164 0.0312 0.61 0.03 1.0896 0.0794 1.3496 0.10938 0.57 0.06 0.64063 0.03 0.64063 0v-0.01l0.0996-0.28125c0.21-0.67 0.30914-1.2485 0.36914-1.7285 0.08-0.63 0.0608-1.0911 0.0508-1.3711 0-0.07-0.01-0.12015-0.01-0.16015 0.02-0.25-0.13047-0.32961-0.23047-0.34961-0.04-0.02-0.0801-0.0195-0.0801-0.0195s-0.60055-0.02-1.5606 0c-0.26 0-0.64055 0.0399-1.0606 0.0898-1.04 0.11-2.3491 0.31922-3.1191 0.44922-0.03 0.01-0.0796 0.0215-0.0996 0.0215-0.04 0.01-0.0696-0.00023-0.0996 0.01-0.92 0.15-1.4813-0.11008-1.6113-0.58008-0.01-0.02-0.0195-0.0401-0.0195-0.0801-0.09-0.53 0.44922-1.0312 0.44922-1.0312 0.19-0.14 0.43094-0.26914 0.71094-0.36914 0.22-0.08 0.46094-0.13922 0.71094-0.19922 0.17-0.04 0.33929-0.0713 0.52929-0.11133 0.15-0.02 0.29899-0.0386 0.45899-0.0586 0.07 0 0.16023-0.0115 0.24023-0.0215 0.11-0.01 0.21985-0.01 0.33985-0.0195 0.11-0.01 0.23156-0.0193 0.35156-0.0293 0.19 0 0.39961-0.01 0.59961-0.0195h0.50976 0.01c1.15 0 2.1094 0.0681 2.3594 0.0781 0.1 0 0.17046-0.0186 0.23046-0.0586 0.02 0 0.0308-0.0195 0.0508-0.0195 0-0.01 0.01-0.0115 0.01-0.0215 0.13-0.14 0.0788-0.38976 0.0488-0.50976 0-0.01-0.01-0.0193-0.01-0.0293v-0.0195c-0.02-0.12-0.0503-0.24133-0.0703-0.36133-0.15-0.82-0.3493-1.4704-1.2793-2.1504-0.56-0.42-1.9198-0.76977-3.0898-1.0098-0.08-0.02-0.15047-0.0388-0.23047-0.0488-0.4-0.08-0.76859-0.15118-1.0586-0.20118-0.19-0.03-0.35117-0.0601-0.45117-0.0801-0.12-0.01-0.17969-0.0195-0.17969-0.0195-0.47-0.01-0.88953-0.0195-1.2695-0.0195zm-45.199 1.6191c-0.833 0.01-1.65 0.12157-2.457 0.35157-0.683 0.2-1.2497 0.43898-1.7227 0.70898-0.479 0.26-0.8523 0.54055-1.1543 0.81055-0.037 0.04-0.07724 0.0694-0.11524 0.10937-0.462 0.44-0.71036 0.81047-0.81836 0.98047-0.03 0.04-0.04655 0.0794-0.06055 0.10938-0.005 0.01-0.0039 0.0195-0.0039 0.0195-0.016 0.04-0.02539 0.0598-0.02539 0.0898-0.005 0.15 0.21289 0.1211 0.21289 0.12109 0 0 0.51703-0.0493 1.832-0.0293 0.374 0.01 0.80059 0.0288 1.3086 0.0488 0.063 0.01 0.13522 0.01 0.19922 0.01 0.075 0.01 0.15452 0.0215 0.22852 0.0215 1.056 0.08 2.037 0.2482 2.752 0.4082 0.711 0.16 1.1602 0.31055 1.1602 0.31055s1.1766 0.35937 1.3496 1.1094c0.022 0.11 0.02881 0.2218 0.0078 0.3418-0.179 0.97-1.5918 0.59961-1.5918 0.59961s-0.34224-0.10047-0.86524-0.23047c-0.299-0.06-0.64711-0.16-1.0371-0.25-0.385-0.1-0.79775-0.20078-1.2188-0.30078-1.135-0.27-2.5986-0.32961-3.5586-0.34961h-0.26367-0.58008c-0.131 0-0.22183 0.0308-0.29883 0.0508-0.065 0.01-0.11053 0.0405-0.14453 0.0605-0.106 0.09-0.09375 0.18945-0.09375 0.18945s-0.0043 0.64984 0.05469 1.3398c0.009 0.1 0.0232 0.19883 0.0332 0.29883 0.088 0.8 0.37889 1.4019 0.58789 1.9219 0.051 0.13 0.10425 0.2 0.15625 0.25 0.022 0.03 0.04631 0.0681 0.07031 0.0781 0.013 0.01 0.03269 0.0213 0.05469 0.0312 0.003 0.01 0.01148 0.01 0.02148 0.0195 0.015 0 0.02148 0.01 0.02148 0.01h0.02344 0.0078 0.0039c0 0.01 0.0076 0.01 0.01758 0.01h0.02734 0.002 0.01172 0.02344 0.0098c0.028 0 0.04687-0.01 0.04687-0.01 0.025 0 0.0723 0.00047 0.1543-0.0195 0.138-0.02 0.36233-0.0401 0.73633-0.0801 0.127-0.01 0.26297-0.0408 0.41797-0.0508 0.214-0.02 0.46133-0.0501 0.73633-0.0801 0.315-0.03 0.65376-0.0488 1.0098-0.0488 0.301-0.01 0.61178 0 0.92578 0 2.183 0.09 4.3984 0.54883 4.3984 0.54883s0.77316 0.15 1.4102 0.5c0.425 0.24 0.79498 0.55047 0.83398 0.98047 0.005 0.04 0.0078 0.0696 0.0078 0.0996 0 0.04-0.0028 0.0811-0.0078 0.12109-0.026 0.17-0.08062 0.30039-0.14062 0.40039-0.005 0.01-0.0039 0.01-0.0039 0.01-0.068 0.11-0.15748 0.18023-0.27148 0.24023-0.096 0.04-0.20508 0.0701-0.33008 0.0801-0.372 0.03-0.89712-0.0817-1.5781-0.26172-0.243-0.07-0.52164-0.13875-0.80664-0.21875-0.276-0.07-0.56672-0.15047-0.88672-0.23047-0.255-0.08-0.52288-0.12945-0.79688-0.18945-0.061-0.01-0.11969-0.0213-0.17969-0.0312-0.284-0.06-0.57247-0.10867-0.85547-0.13867-1.129-0.15-2.1933-0.16992-2.9453-0.16992-0.565 0.01-0.96131 0.0295-1.0703 0.0195-0.06 0-0.08895 0.0293-0.12695 0.0293l-0.02539-0.0293s-0.58317-0.0609-0.45117 0.61914c0.139 0.67 1.0988 5.1401 3.1738 7.5801 0.593 0.7 1.0566 1.1308 1.4316 1.3808 0.426 0.37001 0.88348 0.71954 1.3965 1.0195 2.049 1.19 4.7984 1.7001 8.3574 1.3301 0.32-0.04 0.66024-0.0789 0.99024-0.1289 0.59-0.09 1.2006-0.20008 1.8105-0.33008 0.6-0.14 1.2103-0.28117 1.8203-0.45117 0.31-0.08 0.60992-0.16 0.91992-0.25 0.09-0.03 0.18883-0.0696 0.29883-0.0996 0.1-0.03 0.21054-0.0596 0.31054-0.0996 0.39-0.11 0.77039-0.23133 1.1504-0.36133 0.74-0.25 1.4584-0.49976 2.1484-0.75976 1.48-0.56 2.7604-1.1095 3.6504-1.5195 0.12-0.06 0.23961-0.11992 0.34961-0.16992 0.31-0.15 0.55094-0.2789 0.71094-0.3789 0.17-0.08 0.30945-0.18055 0.43945-0.31055 0.88-0.86 0.98125-2.3701 1.0312-3.3301 0.02-0.27-0.0103-0.47062-0.0703-0.64062-0.2-0.49-0.72055-0.57985-1.3106-0.83985-0.78-0.35-1.5008-1.0202-2.8008-2.1602-0.16-0.13-0.29992-0.25938-0.41992-0.35938-0.29-0.26-0.49976-0.44086-0.75976-0.63086-0.5-0.34-1.1987-0.66906-3.1387-1.5391-0.43-0.19-0.82164-0.38055-1.1816-0.56055-1.08-0.55-1.8898-1.0608-2.5098-1.5508-0.83-0.65-1.2994-1.2183-1.6094-1.7383-0.22-0.36-0.37906-0.62156-0.53906-0.85156-0.11-0.18-0.23133-0.33828-0.36133-0.48828-0.04-0.05-0.0887-0.11016-0.13867-0.16016-0.14-0.15-0.31125-0.31023-0.53125-0.49023-0.31-0.26-0.90977-0.54102-1.5098-0.79102-0.1-0.05-0.18906-0.0789-0.28906-0.12891-0.03 0-0.0501-0.0115-0.0801-0.0215-0.07-0.04-0.14093-0.0601-0.21093-0.0801-0.1-0.04-0.20979-0.0889-0.30079-0.12891-0.054-0.02-0.1123-0.0308-0.1543-0.0508-0.122-0.04-0.21841-0.0794-0.31641-0.10937-0.046-0.02-0.07723-0.0291-0.11523-0.0391-0.039-0.01-0.08709-0.041-0.12109-0.041-0.039-0.02-0.07347-0.0291-0.10547-0.0391-0.036-0.01-0.05859-0.0215-0.05859-0.0215-0.541-0.16-1.0716-0.30945-1.6016-0.43945-0.291-0.07-0.57338-0.13922-0.85938-0.19922-0.244-0.05-0.48738-0.10062-0.73438-0.14062-0.863-0.15-1.7042-0.24071-2.5312-0.22071zm40.588 23.92c-0.13 0.01-0.17922 0.16109-0.19922 0.62109-0.01 0.07-0.01 0.13875-0.0195 0.21875-0.01 0.1-0.01 0.19055-0.01 0.31055-0.01 0.12-0.0115 0.25992-0.0215 0.41992-0.11 2.14-1.3886 4.7611-2.5586 6.6211l-0.24023 0.35938c-0.08 0.13-0.16047 0.24937-0.23047 0.35937-0.32 0.47-0.5507 0.98102-0.7207 1.541-0.06 0.21-0.12016 0.41867-0.16016 0.63867l-0.11914 0.57031c-0.23 1.37-0.27953 2.8414-0.51953 4.1914-0.03 0.18-0.0601 0.36859-0.0801 0.55859-0.15 0.86-0.27015 1.7115-0.41015 2.5215-0.07 0.41-0.15 0.81898-0.25 1.209-0.28 1.19-0.68063 2.3108-1.3906 3.3008-0.58 0.83-1.4289 1.3988-2.3789 1.7988-0.31999 0.14-0.64046 0.24961-0.98046 0.34961-0.31 0.09-0.61946 0.18-0.93946 0.25-1 0.23-2.0111 0.34141-2.8711 0.44141-0.52 0.05-1.289 0.0896-2.209 0.0996h-0.0215c-1.94 0.01-4.5691-0.13007-7.0391-0.58007-1.09-0.21-2.1591-0.4493-3.1191-0.7793-0.26-0.1-0.52172-0.20984-0.76172-0.33984-0.12-0.05-0.22008-0.12164-0.33008-0.18164-1.08-0.61-1.9599-1.479-2.6699-2.459-0.28-0.4-0.5393-0.81047-0.7793-1.2305-0.02-0.04-0.0601-0.0789-0.0801-0.1289-0.01 0.21-0.0291 0.43945-0.0391 0.68945-0.01 0.21-0.0213 0.43016-0.0312 0.66016-0.01 0.21-0.01 0.41867-0.01 0.63867 0.02 1.47 0.24039 3.1614 1.1504 4.6914h0.01c0.17 0.23 0.33977 0.42891 0.50977 0.62891 0.33 0.39 0.66 0.75031 1 1.0703 0.28 0.25 0.55961 0.47946 0.84961 0.68946 0.07 0.05 0.14093 0.0806 0.21093 0.14062 0.22 0.14 0.43993 0.28992 0.66993 0.41992 0.11 0.06 0.22984 0.10969 0.33984 0.17969 0.21 0.1 0.44039 0.19125 0.65039 0.28125 0.13 0.05 0.25891 0.0791 0.37891 0.11914 1.47 0.52 3.1213 0.71914 5.1113 0.86914 1.11 0.08 2.2702 0.12133 3.4102 0.11133 3.38-0.02 6.5496-0.39008 7.8496-0.83008 3.71-1.21 4.35-2.0994 5.5-3.6894 0.1-0.12 0.18953-0.26039 0.26953-0.40039 0.12-0.19 0.24938-0.4011 0.35938-0.6211 1.05-2.13 1.3111-5.0991 1.8711-9.1191 0.02-0.1 0.0188-0.20101 0.0488-0.29101 0.06-0.5 0.13117-0.96992 0.20117-1.4199 0.18-1.13 0.38016-2.2295 0.66016-3.5195 0.29-1.36 0.66898-2.9391 1.209-5.0391 0.49-1.86 0.64961-3.0505 0.84961-4.0606 0.06-0.33 0.13094-0.63921 0.21094-0.94921 0.05-0.15 0.0608-0.28016 0.0508-0.41016-0.01-0.38-0.2107-0.64031-0.4707-0.82031-0.07-0.06-0.16024-0.11016-0.24024-0.16016-0.06-0.03-0.11969-0.0601-0.17969-0.0801 0 0-0.01-0.01-0.0195-0.01-0.03-0.02-0.0713-0.031-0.11132-0.041-0.19-0.08-0.36024-0.12992-0.49024-0.16992-0.22-0.09-0.38976-0.16898-0.50976-0.20898-0.04-0.01-0.0794-0.0215-0.10938-0.0215-0.01 0-0.0408-0.01-0.0508-0.01zm-22.309 66.73c-6.84 0.01-13.741 3.9596-17.387 9.8496-0.361 0.57-0.97161 0.78016-1.7246 0.41016-11.321-5.66-21.436 0.0413-22.768 9.3613-0.112 0.8-0.74606 1.4983-1.6641 1.4883-5.523-0.03-10.36 2.8616-12.533 7.3516-1.053 2.17-1.4155 5.2487-0.31445 8.1387 0.284-2.63 1.3734-5.3986 3.8184-8.0586 0.074-0.08 0.33869-0.28039 0.55469-0.40039 4.811-2.69 9.5627 1.9605 8.5547 6.7305-0.323 1.54-2.0556 3.2087-3.7266 5.1387-0.58 0.67-1.1425 1.9012-1.6445 3.2812 3.615 1.07 9.3199 0.42828 11.795-6.2617 0.431-1.16 1.179-0.89812 1.541-0.82812 12.826 2.32 21.456-7.5512 21.025-13.781-0.064-0.88 0.64519-1.2288 1.1172-0.54883 7.555 11.04 20.434 6.2484 22.164 4.3184 0.56-0.62 0.93047-1.1301 1.4805-0.0801 2.77 5.25 7.8811 7.6311 14.371 4.8711-0.76-0.88-1.7001-1.4711-2.3301-1.8711-3.11-2.05-3.6509-2.8183-4.4609-4.9883-1.1-2.96 0.53968-5.4306 1.6797-6.6406 1.52-1.61 4.5806-2.7602 7.3906-0.41015 2.53 2.11 3.5495 4.8709 3.7695 7.6309 2.41-7.44-4.2691-17.131-13.869-13.441-0.63 0.24-0.77133-0.009-1.1113-0.70898-3.69-7.5-9.6885-10.561-15.729-10.551zm-0.95117 3.8496c5.44 0 7.261 5.1604 6.791 9.1504-0.46 3.99-5.2298 10.671-6.3398 11.641-0.32999 0.29-1.1802 1.1598-1.4102-0.41016-0.13-0.92-0.80024-3.9009-1.4902-5.2109-0.45-0.85-0.65101-0.87914-1.041-1.1192-1.36-0.83999-4.0298-4.75-2.8398-9.25 0.57999-2.17 3.2101-4.8108 6.3301-4.8008zm-28.2 10.13c2.787 0.13 5.5412 2.269 6.2012 5.209 0.318 1.4-0.23911 3.7005-0.78711 4.0605-3.468 2.22-5.2331 6.9708-4.4941 11.301 0.164 0.92-0.08619 1.3402-1.1172 0.74023-4.014-2.3-11.052-11.001-3.4316-20.121 1.087-0.89 2.3619-1.2495 3.6289-1.1895z" fill="#d9b97b" transform="translate(0 -.00044250)"/><path d="m120.5 94.558c-2.73-0.054-5.58 0.282-8.77 1.054-8.51 2.059-14.257 6.975-14.257 6.975s-2.244 1.53-5.869 3.73c-8.649 5.27-9.932 6.38-17.172 13.61 0 0 0.033-0.02 0.086-0.05 0.985-0.66 10.627-7.15 14.095-9.28 3.654-2.25 11.797-6.46 15.457-8.29 3.65-1.82 11.38-6.038 20.38-3.935 8.98 2.105 21.88 12.925 21.89 12.935l4.96-1.39s-8.7-8.6-17.04-12.035c-4.99-2.058-9.21-3.234-13.76-3.324zm46.29 16.539c-0.95-0.01-1.88 0.01-2.81 0.05-0.86 0.03-1.67 0.1-2.4 0.19h-0.01l-3.42 0.44-0.86 0.1-1.43 0.22-3.09 0.46c-1.57 0.24-2.99 0.46-4.29 0.65 0.32-0.02 1.8-0.14 4.05-0.24 1.28-0.05 2.81-0.11 4.52-0.13h0.05c0.46-0.01 0.95-0.01 1.46-0.03h1.53c5.2 0.02 11.47 0.31 17.34 1.25 1.35 0.21 2.68 0.47 3.97 0.76 0.99 0.22 1.95 0.47 2.88 0.74 0.27 0.09 0.52 0.16 0.79 0.24 0.66 0.21 1.29 0.43 1.9 0.66 0.23 0.09 0.45 0.17 0.68 0.26 1.58 0.64 3 1.38 4.24 2.22 0 0 0.56 0.37 1.2 1.18 0.05 0.05 0.09 0.11 0.13 0.17 0.02 0.02 0.03 0.04 0.05 0.06 0.03 0.04 0.05 0.09 0.09 0.13 0.3 0.43 0.6 0.95 0.85 1.59 0.09 0.21 0.17 0.44 0.25 0.67 0.24 0.79 0.42 1.72 0.44 2.79v0.01c0.01 0.16 0.01 0.33 0.01 0.5v0.04c-0.01 0.32-0.02 0.64-0.05 0.98-0.01 0.2-0.03 0.41-0.06 0.63-0.11 0.72-0.23 1.47-0.35 2.23-0.16 1.08-0.34 2.18-0.54 3.3-0.66 3.74-1.47 7.72-2.47 11.76-0.34 1.34-0.69 2.7-1.07 4.04-0.64 2.3-1.35 4.58-2.12 6.82-0.92 2.65-1.93 5.24-3.06 7.7-0.23 0.48-0.44 0.95-0.66 1.41-0.51 1.03-1.03 2.03-1.57 3-0.29 0.51-0.58 1.03-0.88 1.53 0 0.01-0.01 0.02-0.02 0.03-0.02 0.04-0.05 0.08-0.08 0.12-0.45 0.76-0.92 1.5-1.41 2.21-0.48 0.69-1.19 1.24-1.67 1.88l0.23 0.12h0.02l0.01 0.01 0.05 0.03 0.06 0.02 0.01 0.01 0.17 0.11 0.76 0.51 0.43 0.35v0.01 0.01l0.36 0.39 0.04 0.05s0.44-0.18 1-0.4c0.33-0.14 0.71-0.29 1.1-0.44 0.25-0.08 0.47-0.2 0.68-0.32 0.52-0.31 0.9-0.66 1.16-0.92 0.13-0.15 0.24-0.27 0.29-0.33 0.01-0.01 0.02-0.03 0.02-0.04h0.02c0.12-0.13 0.26-0.34 0.42-0.58 1.06-1.65 2.9-5.73 4.65-10.13l0.01-0.01c0.46-1.15 1-2.32 1.43-3.48 0.72-1.94 1.28-3.81 1.8-5.48 0.14-0.43 0.27-0.85 0.38-1.25 0.1-0.31 0.18-0.61 0.25-0.9 0.02-0.06 0.04-0.13 0.05-0.19 0.3-1.12 0.62-2.4 0.96-3.84 0.11-0.47 0.22-0.97 0.34-1.48 0.32-1.43 0.64-3 0.94-4.67 0.06-0.31 0.11-0.62 0.17-0.94 0.05-0.32 0.11-0.65 0.16-0.98 0.32-1.93 0.61-3.98 0.85-6.15v-0.06c0.1-0.67 0.19-1.31 0.27-1.9 0.47-3.09 1.11-6.4 0-9.37-0.77-2.03-1.47-3.38-4.83-5.23-0.48-0.26-1.01-0.54-1.61-0.83-0.32-0.16-0.65-0.31-1-0.48-0.09-0.03-0.2-0.08-0.29-0.11-0.09-0.05-0.18-0.08-0.28-0.12-1.41-0.57-3.4-1.12-5.77-1.61-1.47-0.31-3.06-0.65-4.72-0.91-0.11-0.01-2.36-0.27-2.36-0.27s-0.8-0.1-0.95-0.12c-0.02 0-0.04-0.01-0.04-0.01-3.45-0.44-6.48-0.67-9.35-0.69zm-15.36 30.92s0.08 1.77 0.51 3.04c0.43 1.26 0.36 1.55 1.23 3 0.22 0.4 0.42 0.83 0.61 1.29 0.02 0.03 0.02 0.05 0.03 0.08 0 0.01 0.01 0.01 0.01 0.02s0 0.01 0.01 0.01c0.05 0.11 0.09 0.22 0.14 0.34 0.01 0.02 0.01 0.05 0.02 0.07s0.02 0.05 0.03 0.07v0.01c0.02 0.03 0.03 0.06 0.04 0.09 0.03 0.08 0.06 0.15 0.09 0.22v0.01c0.01 0.02 0.01 0.04 0.02 0.05 0.01 0.02 0.02 0.05 0.03 0.08v0.01l0.01 0.01v0.01c0.01 0.05 0.03 0.1 0.05 0.15 0.02 0.06 0.04 0.1 0.06 0.15v0.01c0.01 0.01 0.01 0.01 0.01 0.02s0.01 0.03 0.01 0.04h0.01c0.01 0.04 0.01 0.07 0.03 0.11h0.01c0.01 0.03 0.02 0.07 0.03 0.11 0.03 0.07 0.05 0.14 0.08 0.21 0 0.01 0 0.01 0.01 0.01 0 0.03 0.01 0.06 0.02 0.08 0.01 0.03 0.01 0.05 0.02 0.08 0.03 0.06 0.04 0.13 0.07 0.18 0.01 0.07 0.04 0.13 0.06 0.19v0.01 0.01h0.01c0 0.03 0.01 0.05 0.02 0.08 0 0 0 0.01 0.01 0.01v0.02 0.01c0.05 0.14 0.09 0.29 0.14 0.45 0.06 0.19 0.12 0.38 0.18 0.59 0.01 0 0.01 0.01 0.01 0.01v0.01l0.03 0.09c0 0.01 0 0.01 0.01 0.02v0.02c0.03 0.1 0.06 0.2 0.09 0.31 0.01 0.02 0.02 0.04 0.02 0.07v0.01c0.02 0.05 0.03 0.1 0.05 0.16v0.02h0.01c0.01 0.03 0.01 0.06 0.02 0.1 0.02 0.08 0.04 0.16 0.07 0.25h0.01c0.01 0.07 0.03 0.13 0.04 0.19 0 0.01 0.01 0.01 0.01 0.02 0.01 0.03 0.02 0.06 0.02 0.09 0.02 0.08 0.05 0.16 0.07 0.24v0.01 0.01c0.01 0.01 0.01 0.03 0.01 0.05 0.01 0.02 0.02 0.05 0.03 0.08 0 0.01 0.01 0.03 0.01 0.04s0.01 0.01 0.01 0.02v0.02c0.03 0.11 0.05 0.22 0.08 0.32 0 0.01 0 0.01 0.01 0.01v0.02c0 0.01 0.01 0.02 0.01 0.03v0.04c0.01 0 0.01 0.01 0.01 0.02 0.01 0 0.01 0.02 0.01 0.03 0 0.02 0.01 0.03 0.02 0.05v0.02 0.01l0.09 0.36c0 0.02 0.01 0.03 0.02 0.05v0.01c0 0.03 0.01 0.06 0.02 0.09 0 0.01 0.01 0.02 0.01 0.03v0.01c0.04 0.18 0.09 0.37 0.13 0.54v0.01c0.02 0.08 0.04 0.15 0.06 0.21 0.02 0.12 0.05 0.24 0.08 0.35v0.02c0.01 0.02 0.02 0.04 0.02 0.06 0.01 0.02 0.01 0.04 0.01 0.05v0.01l0.02 0.06c0.01 0.06 0.02 0.12 0.04 0.19 0.01 0.05 0.03 0.11 0.04 0.17v0.02c0.02 0.05 0.03 0.11 0.04 0.16v0.01l0.01 0.01v0.04c0.03 0.11 0.05 0.21 0.07 0.32 0 0.01 0.01 0.01 0.01 0.01v0.01c0.01 0.05 0.03 0.1 0.03 0.15 0 0.01 0.01 0.03 0.01 0.04s0.01 0.02 0.01 0.02v0.04c0.02 0.09 0.05 0.19 0.07 0.28 0 0.01 0.01 0.02 0.01 0.03 0.01 0.06 0.02 0.11 0.03 0.16 0.01 0.03 0 0.05 0.01 0.07 0.01 0.01 0.01 0.02 0.01 0.03 0.02 0.05 0.02 0.1 0.03 0.15 0.01 0.02 0.01 0.06 0.03 0.09 0 0-0.01 0.01 0 0.01 0 0.01 0 0.02 0.01 0.03 0.01 0.07 0.02 0.13 0.04 0.2 0 0.02 0.01 0.05 0.01 0.07 0 0.01 0.01 0.02 0.01 0.02 0 0.05 0.01 0.09 0.03 0.13v0.03c0 0.02 0.01 0.03 0.01 0.04v0.02 0.01c0.02 0.02 0.02 0.05 0.02 0.09 0.02 0.08 0.03 0.15 0.05 0.23 0.01 0.06 0.03 0.11 0.04 0.17 0.01 0.01 0.01 0.04 0.01 0.05 0.03 0.12 0.05 0.22 0.07 0.33 0.01 0.05 0.02 0.09 0.02 0.14 0.02 0.05 0.03 0.11 0.04 0.16 0 0.01 0.01 0.02 0.01 0.03v0.03c0.06 0.24 0.1 0.49 0.16 0.73 0.03 0.18 0.07 0.36 0.1 0.54v0.01c0.09 0.42 0.16 0.81 0.24 1.21 0.07 0.32 0.14 0.66 0.2 0.97 0 0.03 0.02 0.06 0.02 0.09 0.01 0.07 0.03 0.14 0.04 0.22 0.03 0.1 0.04 0.2 0.05 0.31 0.01 0.05 0.03 0.09 0.04 0.14 0.03 0.14 0.05 0.27 0.07 0.41 0.01 0.04 0.02 0.07 0.02 0.1l0.12 0.63c0.02 0.12 0.04 0.24 0.06 0.37 0.02 0.15 0.05 0.3 0.07 0.45 0.02 0.11 0.04 0.22 0.05 0.33 0.01 0.03 0.02 0.07 0.02 0.11 0.01 0.05 0.02 0.09 0.03 0.14 0.02 0.17 0.05 0.34 0.07 0.51 0.02 0.13 0.04 0.26 0.05 0.39 0.01 0.05 0.02 0.1 0.02 0.16 0.02 0.11 0.04 0.22 0.05 0.33 0.02 0.22 0.05 0.43 0.08 0.64 0 0.02 0.01 0.05 0.01 0.07v0.03c0.02 0.17 0.04 0.34 0.06 0.52 0.01 0.17 0.04 0.33 0.05 0.51v0.05c0.01 0.03 0.01 0.07 0.01 0.09 0.03 0.32 0.06 0.65 0.08 0.96 0.01 0.01 0.01 0.02 0.01 0.02v0.01c0.02 0.34 0.04 0.67 0.06 0.99v0.07s0.01 0 0.01 0.01v0.01 0.01c0 0.34 0.02 0.67 0.03 1.01v0.02 0.03 0.47 0.46 0.07 0.12c0 0.09-0.01 0.18-0.01 0.27 0 0.08 0 0.16-0.01 0.25 0 0.06 0 0.14-0.01 0.21 0 0.18-0.01 0.38-0.02 0.56-0.01 0.03-0.01 0.07-0.02 0.11v0.03c-0.01 0.18-0.03 0.35-0.04 0.52-0.01 0.05-0.02 0.09-0.02 0.12v0.06c-0.01 0.09-0.03 0.18-0.04 0.27-0.01 0.1-0.02 0.19-0.03 0.28 0 0.01-0.01 0.02-0.01 0.02v0.03c-0.02 0.09-0.03 0.18-0.05 0.27-0.01 0.09-0.03 0.18-0.05 0.26 0 0.05-0.02 0.11-0.03 0.15-0.03 0.18-0.07 0.34-0.11 0.5 0 0.01-0.01 0.02-0.01 0.04v0.02c-0.03 0.09-0.05 0.17-0.08 0.26-0.01 0.06-0.03 0.13-0.05 0.19-0.01 0.02-0.02 0.05-0.02 0.07-0.01 0.02-0.02 0.05-0.03 0.08-0.03 0.09-0.07 0.18-0.1 0.28-0.02 0.04-0.03 0.09-0.05 0.13 0 0.01 0 0.01-0.01 0.01 0 0.01 0 0.02-0.01 0.03 0 0.01-0.01 0.03-0.02 0.05-0.02 0.03-0.03 0.05-0.04 0.08-0.02 0.04-0.04 0.07-0.05 0.1 0 0.01-0.01 0.01-0.01 0.02-0.08 0.17-0.17 0.33-0.27 0.5-0.1 0.15-0.19 0.3-0.3 0.46-0.69 1-1.67 2-2.68 2.88-0.14 0.12-0.29 0.24-0.44 0.37-0.73 0.62-1.47 1.16-2.1 1.62-1.07 0.76-1.86 1.24-1.9 1.26l0.03 0.07 0.01 0.03 0.03 0.1 1.45 5.65v0.01h0.01l0.01 0.02v0.01l0.01 0.02c0.35-0.3 0.71-0.61 1.05-0.93 0.12-0.11 0.24-0.24 0.38-0.36 0.33-0.31 0.66-0.66 1-1.02 0-0.01 0-0.01 0.01-0.02 0.15-0.16 0.31-0.34 0.46-0.51 0.28-0.33 0.57-0.66 0.86-1.03 0.89-1.11 1.89-2.48 3.1-4.28 2.49-3.74 2.89-5.77 2.9-8.73v-0.52c0-0.53-0.01-1.1-0.02-1.71-0.12-4.33-0.52-9.83-2.98-16.85-0.15-0.46-0.31-0.88-0.45-1.3-0.07-0.2-0.14-0.39-0.21-0.59-0.03-0.08-0.06-0.17-0.08-0.25-0.39-1.09-0.74-2.08-1.07-2.99-0.01-0.01-0.02-0.03-0.03-0.05-0.27-0.72-0.53-1.39-0.78-2.01-0.01-0.03-0.02-0.05-0.03-0.07-0.49-1.23-0.93-2.24-1.33-3.08-0.06-0.12-1.24-2.27-2.2-3.57 0-0.01-0.76-1.24-0.92-1.64-0.01-0.02-0.01-0.03-0.02-0.05zm-21.89 43.19c-0.08 0-0.15-0.01-0.23 0-4.45 0.25-8.59 1.31-10.27 4.07l-0.05 0.05c0 0.03-0.01 0.04-0.03 0.06s-0.04 0.05-0.05 0.07c-0.03 0.02-0.04 0.03-0.06 0.05h-0.02c-0.01 0.01-0.02 0.02-0.03 0.02h-0.01c-0.01 0-0.03 0.01-0.03 0.01-0.06 0-0.13-0.02-0.2-0.07-0.05-0.03-0.12-0.1-0.18-0.17-0.37-0.42-0.73-0.78-1.13-1.09-0.68-0.5-1.43-0.87-2.34-1.11-0.95-0.26-1.89-0.48-2.79-0.66l-0.18-0.03c-0.36-0.07-0.7-0.12-1.05-0.18-1.33-0.19-2.48-0.25-3.31-0.13-0.13 0.02-0.28 0.03-0.38 0.05-0.04 0.01-0.07 0.03-0.09 0.03-0.12 0.04-0.24 0.08-0.36 0.13-0.4 0.18-0.76 0.46-0.93 0.79-0.04 0.06-0.07 0.13-0.09 0.2-0.04 0.14-0.03 0.28 0.01 0.42 0 0.02 0.02 0.04 0.03 0.05 0.01 0.02 0.04 0.05 0.04 0.07 0.1 0.19 0.26 0.41 0.57 0.6 0.78 0.51 1.93 0.92 3.01 1.24l0.3 0.09c0.14 0.04 0.27 0.08 0.41 0.11 0.14 0.04 0.29 0.09 0.43 0.13 0.56 0.14 1.06 0.27 1.4 0.38 0.25 0.07 0.48 0.15 0.7 0.23 0.05 0.02 0.11 0.02 0.16 0.05 0.18 0.07 0.34 0.13 0.49 0.22h0.01 0.02c0.01 0.02 0.01 0.02 0.02 0.02 0.23 0.13 0.44 0.27 0.62 0.45s0.33 0.39 0.45 0.64c0.52 1.13 0.85 1.84 1.34 2.44 0.38 0.47 0.79 0.79 1.22 1.01 0.29 0.13 0.58 0.23 0.88 0.28l0.12 0.03c0.27 0.03 0.54 0.03 0.82 0 0.5-0.06 1.48-0.15 2.03-0.84 0 0 0.01-0.02 0.02-0.02 0.02-0.03 0.03-0.07 0.06-0.1 0.06-0.09 0.12-0.19 0.17-0.31 0.03-0.09 0.05-0.2 0.08-0.3 0.02-0.08 0.05-0.14 0.06-0.23 0.02-0.18 0.05-0.35 0.09-0.51 0.05-0.27 0.12-0.51 0.2-0.72 0.11-0.27 0.28-0.49 0.46-0.71 0.09-0.11 0.18-0.23 0.3-0.33 0.11-0.11 0.23-0.22 0.37-0.32 0.1-0.08 0.2-0.13 0.3-0.2 0.33-0.22 0.67-0.4 1.02-0.5 0.91-0.27 1.96-0.1 3.56-0.24 0.73-0.07 1.39-0.44 1.91-0.79 0.58-0.38 1-0.9 1.25-1.53 0.14-0.33 0.22-0.68 0.25-1.06 0.01-0.25 0.01-0.51-0.03-0.76-0.04-0.24-0.11-0.49-0.29-0.69-0.07-0.1-0.18-0.19-0.32-0.25-0.06-0.04-0.14-0.06-0.23-0.09-0.03-0.01-0.08-0.01-0.13-0.02-0.1-0.02-0.24-0.03-0.37-0.03zm-32.218 50.55s-1.259 4.88-1.613 5.58c-0.374 0.75-0.461 1.52-0.461 1.52s-2.713-2.66-3.066-1.67c-0.354 0.99-0.281 4.72 0.845 7.11 1.127 2.39 4.017 7.8 5.352 11.94 1.332 4.15 3.871 13.98 3.871 13.98s0.07-0.02 0.18-0.06c0.56-0.18 2.47-0.77 3.98-1.09 0.49-0.1 0.93-0.17 1.28-0.19h0.17s-2.62-6.75-5.89-13.19c-3.315-6.56-7.4-13.17-7.4-13.17s-1.133-4.29 0.223-2.65c0.047 0.06 0.103 0.13 0.16 0.2 0.083 0.12 0.159 0.22 0.24 0.33 0.254 0.35 0.49 0.66 0.707 0.96 0.833 1.11 1.414 1.88 1.629 2.17 0.059 0.08 0.102 0.13 0.102 0.13l2.529-7.61c-0.752-0.88-1.432-1.84-2.041-2.86-0.392-0.58-0.708-1.11-0.797-1.43z" fill="#f1e2c8"/><path d="m87.688 161.82c-0.609 3.49 0.60003 6.7791 3.832 8.5391 0.121 0.07 0.24514 0.11969 0.36914 0.17969 0.122 0.06 0.24423 0.13164 0.36523 0.18164 3.675 1.56 7.2196-0.26148 8.2266-2.5215-0.19-0.06-0.38031-0.12922-0.57031-0.19922-0.19-0.06-0.38041-0.12922-0.56641-0.19922-0.356-0.13-0.71273-0.25086-1.0527-0.38086-0.117 0.15-0.25634 0.29016-0.40234 0.41015-0.137 0.13-0.28078 0.24961-0.42578 0.34961-0.456 0.32-0.9693 0.55969-1.5293 0.67969-0.053 0.02-0.10316 0.0213-0.16016 0.0312-0.052 0.01-0.11774 0.0193-0.17774 0.0293h-0.01758c-0.102 0.02-0.20355 0.0193-0.31055 0.0293-0.097 0.01-0.19773 0.0215-0.30273 0.0215-0.114 0-0.21627-0.0213-0.32227-0.0312-1.703-0.13-3.1226-1.2105-3.7266-2.7305-0.204-0.5-0.31445-1.0491-0.31445-1.6191 0-0.06-0.000187-0.11992 0.0078-0.16992 0.003-0.06 0.0059-0.11016 0.0059-0.16016 0.016-0.11 0.03283-0.21984 0.04883-0.33984 0-0.01-0.000046-0.0191 0.002-0.0391-0.924-0.55-1.706-1.0701-2.373-1.5801-0.218-0.16-0.41547-0.32047-0.60547-0.48047zm54.902 0.0605c-0.52 0.36-1.1102 0.73937-1.7402 1.1094-0.27 0.17-0.53008 0.33-0.83008 0.5 0.03 0.12 0.0503 0.21985 0.0703 0.33984 0.06 0.27001 0.0801 0.55032 0.0801 0.82032 0 0.21-0.009 0.40961-0.0391 0.59961-0.02 0.17-0.0616 0.34-0.10156 0.5-0.04 0.15-0.0887 0.28968-0.13868 0.42968-0.37 0.95-1.0709 1.7505-1.9609 2.2305-0.01 0-0.01 0.01-0.01 0.01-0.02 0.01-0.0503 0.0191-0.0703 0.0391-0.03 0.01-0.0601 0.0213-0.0801 0.0312-0.19 0.1-0.39937 0.14875-0.60937 0.21875-0.2 0.06-0.4111 0.11039-0.6211 0.15039-0.23 0.03-0.4282 0.0703-0.6582 0.0703-0.39 0-0.76109-0.0504-1.1211-0.15039-0.26-0.08-0.51977-0.16882-0.75977-0.29882-0.73-0.36-1.33-0.91133-1.75-1.6113-0.33 0.12-0.70055 0.22008-1.0606 0.33008-0.36 0.11-0.68859 0.22031-1.0586 0.32031v0.01c0.33 0.78 0.99891 1.5313 1.8789 2.1113 1.47 0.97 3.5398 1.4788 5.5898 0.96875 0.4-0.1 0.80117-0.24969 1.2012-0.42969 0.15-0.07 0.31875-0.1407 0.46875-0.2207 0.7-0.39 1.2412-0.8193 1.7012-1.2793 0.37-0.37 0.69922-0.75992 0.94922-1.1699 0.19-0.31 0.33094-0.6307 0.46094-0.9707 0.06-0.17 0.10844-0.35906 0.14844-0.53906 0.07-0.28 0.13992-0.56961 0.16992-0.84961 0.06-0.45 0.0803-0.92016 0.0703-1.4102-0.01-0.23-0.0288-0.4707-0.0488-0.7207-0.02-0.37-0.0709-0.74867-0.13086-1.1387zm28.371 23.719c-0.07 0-0.16047 0.031-0.23047 0.041-0.21 0.05-0.43063 0.1286-0.64063 0.3086-0.02 0.02-0.0601 0.0501-0.0801 0.0801-0.11 0.11-0.24969 0.28102-0.42969 0.54102-0.08 0.11-0.16047 0.23914-0.23047 0.36914-0.09 0.14-0.17023 0.29117-0.24023 0.45117-0.02 0.01-0.01 0.0293-0.0195 0.0293-0.47 0.98-0.92976 2.3995-1.0098 4.2695v0.0606c0 0.01 0.00023 0.0191-0.01 0.0391v0.0508c-0.01 0.25-0.01 0.49977 0 0.75977 0.02 0.52 0.0606 1.0702 0.14063 1.6602 0.04 0.28 0.0882 0.58063 0.1582 0.89063 0 0.02 0.0117 0.0386 0.0117 0.0586s0.01 0.0308 0.0195 0.0508c0.01 0.04 0.0188 0.0796 0.0488 0.0996v0.01c0.02 0.03 0.0403 0.0505 0.0703 0.0605 0.01 0.01 0.0213 0.01 0.0312 0.0195 0.02 0 0.0293 0.01 0.0293 0.01 0.04 0 0.0796-0.009 0.0996-0.0293 0.02-0.01 0.041-0.0388 0.041-0.0488 0.07-0.06 0.12844-0.17055 0.14844-0.31055 0-0.03 0.0306-0.12047 0.0606-0.23047 0.03-0.15 0.0899-0.38062 0.16992-0.64062 0.32-1.16 0.98984-3.2592 1.8398-5.1992 0.23-0.52 0.48024-1.0398 0.74024-1.5098 0.14-0.26 0.21094-0.51976 0.21093-0.75976v-0.0899c-0.01-0.11-0.0305-0.23008-0.0605-0.33008-0.02-0.07-0.0501-0.14117-0.0801-0.20117-0.01-0.02-0.0191-0.0386-0.0391-0.0586-0.05-0.07-0.11188-0.14141-0.17188-0.19141-0.01-0.02-0.0191-0.0386-0.0391-0.0586-0.07-0.05-0.15047-0.10086-0.23047-0.13086-0.01 0-0.0193-0.01-0.0293-0.01-0.09-0.04-0.17953-0.0505-0.26953-0.0605h-0.01zm16.828 3.8906c-0.1 0.02-0.19929 0.0399-0.27929 0.0898-0.15 0.08-0.26985 0.19961-0.33985 0.34961-0.07 0.13-0.11914 0.27118-0.11914 0.45118-0.01 0.1-0.00047 0.19812 0.0195 0.32812h-0.01c0.03 0.12 0.0899 0.32031 0.16992 0.57031 0.07 0.19 0.14875 0.44071 0.21875 0.72071 0.19 0.73 0.36031 1.7095 0.32031 3.0195 0 0.22-0.0191 0.46117-0.0391 0.70117v0.0391c-0.04 0.46-0.11117 0.95047-0.20117 1.4805-0.07 0.35-0.15 0.72914-0.25 1.1191v0.0312c0 0.01 0.00023 0.0193-0.01 0.0293-0.01 0.05-0.0195 0.10062-0.0195 0.14062 0 0.01-0.00023 0.0386 0.01 0.0586 0.01 0.04 0.0298 0.0898 0.0898 0.0898 0.09-0.01 0.18055-0.0687 0.31055-0.21875 0.03-0.02 0.0503-0.0403 0.0703-0.0703 0.06-0.06 0.14023-0.18031 0.24023-0.32031 0.18-0.26 0.42016-0.63891 0.66016-1.1289 0.21-0.42 0.41961-0.93023 0.59961-1.4902 0.23-0.73 0.40969-1.5607 0.42969-2.4707v-0.0898c0.01-0.2 0.00023-0.42063-0.01-0.64063 0-0.02 0.00023-0.0403-0.01-0.0703-0.03-0.48-0.11-0.96828-0.25-1.4883-0.02-0.09-0.0598-0.19148-0.0898-0.27148-0.28-0.62-0.83984-0.94899-1.3398-0.95899h-0.17188zm13.432 10.369c-0.33 0-0.66078 0.20055-0.80078 0.56055-0.03 0.07-0.0503 0.15047-0.0703 0.23047-0.01 0.06-0.0195 0.11945-0.0195 0.18945 0 0.13 0.0305 0.27016 0.0605 0.41016 0 0.04-0.00023 0.0809 0.01 0.13086 0.05 0.15 0.0889 0.32 0.12891 0.5 0.13 0.52 0.2114 1.1098 0.1914 1.7598-0.03 0.92-0.25992 1.9988-0.91992 3.2988-0.09 0.18-0.13086 0.31016-0.13086 0.41016v0.01c0 0.04 0.009 0.0596 0.0293 0.0996 0.02 0.02 0.0403 0.041 0.0703 0.041 0.01 0 0.031-0.01 0.041-0.01 0.04-0.01 0.0694-0.0213 0.10937-0.0312 0.03-0.03 0.0596-0.0598 0.0996-0.0898 0.03-0.03 0.0501-0.0384 0.0801-0.0684 0.07-0.06 0.22062-0.23117 0.39062-0.45117 0.1-0.13 0.21008-0.27875 0.33008-0.46875 0.08-0.1 0.16047-0.2218 0.23047-0.3418 0-0.01-0.00023-0.0193 0.01-0.0293 0 0 0.0195-0.01 0.0195-0.0195 0.57-0.93 1.159-2.2602 1.209-3.7402 0.01-0.21-0.009-0.41086-0.0293-0.63086-0.02-0.31-0.0704-0.61946-0.15039-0.93946-0.14-0.53-0.51868-0.80031-0.88868-0.82031zm-83.031 5.9414c-0.14 0.01-0.21875 0.0293-0.21875 0.0293s-0.0112 0.01-0.0312 0.0195c-0.03 0-0.0689 0.021-0.1289 0.041-0.42 0.15-1.6102 0.59961-2.9902 1.0996-0.2 0.07-0.39937 0.14875-0.60937 0.21875-0.54 0.2-1.1004 0.4018-1.6504 0.5918-0.32 0.12-0.64141 0.22984-0.94141 0.33984-0.07 0.02-0.12945 0.0386-0.18945 0.0586-0.09 0.02-0.17 0.0598-0.25 0.0898-4.79 1.58-10.58 2.2812-10.58 2.2812l-0.0801 0.5293c-0.01 0.32-0.0195 0.62992-0.0195 0.91992 0.01 0.75 0.0704 1.4212 0.15039 2.0312 0.21 1.44 0.63031 2.4785 1.0703 3.2285 0.01 0.01 0.0195 0.0308 0.0195 0.0508 0.09 0.13 0.17 0.23961 0.25 0.34961h-0.01s0.98859 1.7805 2.0586 1.7305c0 0 0.12024 0.0302 0.24024-0.01 0.04-0.01 0.0605-0.0195 0.0605-0.0195s0.01-0.0212 0.01-0.0312h0.01c0.10999-0.1 0.0511-0.98024 0.12109-1.7402 0.11-0.79 0.24922-1.5385 0.44922-2.2285 0.18-0.67 0.38937-1.3016 0.60937-1.8516 0.53-1.34 1.0716-2.3195 1.3516-2.7695 0.07-0.12 0.12844-0.2 0.14844-0.25l0.0117-0.01c0.01-0.02 0.0195-0.0293 0.0195-0.0293l1.9902 1.3184 14.91-0.68945 1.5684-2.3398s0.002 0.01 0.0117 0.0195l0.01 0.01c0 0.01 0.01 0.0212 0.0195 0.0312v0.01c0.01 0.01 0.0195 0.01 0.0195 0.0195 0 0.02 0.01 0.0195 0.01 0.0195 0 0.01 0.01 0.0115 0.01 0.0215 0.01 0.02 0.0212 0.0288 0.0312 0.0488 0.06 0.08 0.11969 0.18078 0.17969 0.30078 0.07 0.13 0.13898 0.26016 0.20898 0.41016 0.01 0.02 0.0215 0.0386 0.0215 0.0586 0.07 0.15 0.14898 0.31 0.20898 0.5 0.17 0.54 0.81133 2.0406 0.86133 4.3106 0.01 0.34 0.008 0.66953-0.0117 1.0195 0 0.1-0.01 0.24992-0.01 0.41992 0 0.2 0.0108 0.43133 0.0508 0.61133s0.0894 0.31961 0.18945 0.34961c0.05 0.01 0.10039 0.00047 0.15039-0.0195 0.09-0.04 0.1793-0.0997 0.2793-0.17969 0.18-0.14 0.37007-0.36086 0.58008-0.63086 0.34999-0.46 0.75-1.1006 1.25-2.0606 0.15-0.27 0.29117-0.57843 0.45117-0.89843 0.3-0.61 0.52922-1.1303 0.69922-1.5703 0.11-0.27 0.19976-0.50093 0.25976-0.71093 0.11-0.33 0.1807-0.62008 0.2207-0.83008 0.05-0.22 0.0701-0.39883 0.0801-0.54883v-0.19141c0-0.21-0.0511-0.36976-0.12109-0.50976-0.1-0.18-0.24875-0.31891-0.46875-0.37891-0.07-0.01-0.36102-0.0709-0.79102-0.13086-0.3-0.05-0.66984-0.0999-1.0898-0.16992-0.11-0.01-0.22984-0.0208-0.33984-0.0508-0.24-0.03-0.48047-0.0694-0.73047-0.10938l-0.62891-0.0898c-0.1-0.02-0.19125-0.0308-0.28125-0.0508-0.17-0.03-0.34953-0.0501-0.51953-0.0801-1.22-0.2-2.4087-0.40812-3.1387-0.57812-0.6-0.15-1.2306-0.31047-1.8106-0.48047-0.14-0.04-0.27016-0.0811-0.41016-0.1211-0.29-0.09-0.57031-0.17-0.82031-0.25-0.19-0.06-0.36953-0.11015-0.51953-0.16015-0.05-0.02-0.10062-0.0288-0.14062-0.0488-0.04-0.01-0.0889-0.031-0.12891-0.041-0.01 0-0.0212-0.01-0.0312-0.01-0.03-0.01-0.0403-0.01-0.0703-0.0195-0.02-0.01-0.0388-0.0195-0.0488-0.0195-0.04-0.02-0.0813-0.0213-0.11133-0.0312-0.03-0.01-0.0484-0.0195-0.0684-0.0195-0.01-0.01-0.0215-0.01-0.0215-0.01-0.15-0.04-0.26891-0.0603-0.37891-0.0703-0.17-0.03-0.31992-0.0488-0.41992-0.0488h-0.041zm-10.809 17.27c-0.04 0-0.0811 0.0188-0.12109 0.0488-0.04 0.02-0.0696 0.0501-0.0996 0.0801-0.07 0.07-0.12922 0.15-0.19922 0.25-0.13 0.2-0.2611 0.46976-0.3711 0.75976 0 0.02 0.00024 0.031-0.01 0.041-0.05 0.15-0.10086 0.3207-0.13086 0.4707-0.06 0.27-0.0996 0.68016-0.0996 1.1602 0 0.15 0.01 0.31828 0.01 0.48828 0.06 1.58 0.46031 3.6712 1.5703 4.5312 1.55 1.21 2.3394 0.70906 2.6094 0.53906 0.43-0.24 0.8418-0.96875 0.8418-0.96875l1.459 0.54883s0.0509 0.0112 0.13086 0.0312c0.04 0.01 0.0687 0.0188 0.13868 0.0488 0.21999 0.05 0.56999 0.1407 1 0.2207 0.37999 0.08 0.82124 0.13945 1.2812 0.18945 0.32 0.04 0.66 0.0603 1 0.0703 0.04 0 0.0791 0.01 0.11915 0.01h0.33984c0.34 0 0.68953-0.0203 1.0195-0.0703 0.05-0.01 0.0999-0.0193 0.16992-0.0293 0.14-0.02 0.27039-0.0598 0.40039-0.0898 0.15-0.03 0.28992-0.0596 0.41993-0.0996 0.28-0.08 0.49992-0.22133 0.66992-0.36133 0.02-0.02 0.0601-0.0503 0.0801-0.0703 0.09-0.08 0.16093-0.14852 0.21093-0.22852 0.11-0.14 0.19047-0.26008 0.23047-0.33008l0.0195 0.0195c0 0.02 0.0193 0.0501 0.0293 0.0801 0.05 0.13 0.17008 0.37961 0.33008 0.59961 0.1 0.16 0.21937 0.3011 0.35937 0.3711 0.34 0.18 1.231 0.43836 2.041 0.31836 0.3-0.05 0.58961-0.15008 0.84961-0.33008 0.19-0.15 0.43015-0.43914 0.66015-0.86914 0.06-0.11 0.11993-0.21961 0.16993-0.34961 0.03-0.06 0.0601-0.11969 0.0801-0.17969 0.27-0.65 0.48961-1.5208 0.59961-2.5508 0.06-0.52 0.0999-1.0697 0.0899-1.6797v-0.40039c-0.02-0.23-0.0291-0.45922-0.0391-0.69922 0 0 0.00024-0.0115-0.01-0.0215 0-0.01-0.01-0.0188-0.0195-0.0488 0 0-0.0117 0.00023-0.0117-0.01v-0.0508-0.01c-0.01-0.01-0.0193-0.021-0.0293-0.041 0-0.02-0.0291-0.0386-0.0391-0.0586-0.03-0.07-0.0609-0.13969-0.13086-0.17969-0.05-0.03-0.10992-0.0508-0.16992-0.0508-0.2 0.01-0.49086 0.21062-0.88086 0.89062-1.16 1.98-2.4495 2.9098-3.0195 3.2598-0.19 0.11-0.31055 0.16016-0.31055 0.16016l-0.66992-0.71094s-0.22914 0.0303-0.61914 0.0703c-0.1 0.02-0.19078 0.021-0.30078 0.041-0.78 0.07-1.9391 0.1582-3.1191 0.1582h-0.0703c-1.34-0.02-2.6795-0.13953-3.5195-0.51953l-0.75 0.68945s-2.4109-1.6393-3.2109-3.0293c-0.07-0.13-0.12946-0.2496-0.18946-0.34961 0-0.02-0.01-0.0193-0.0195-0.0293-0.56-1.09-0.47992-1.4416-0.66992-1.6816-0.03-0.03-0.0596-0.0488-0.0996-0.0488zm2.4297 59.639c-0.34-0.04-0.73063 0.0302-1.1406 0.24024-0.97 0.49-1.5998 1.3498-1.7598 2.5898-0.11 0.97 0.46031 2.9604 1.5703 4.1504 0.72 0.77 1.0494 1.6005 1.3594 2.4805 0.68 1.88 1.1095 3.8196 1.1895 4.5996 0.06 0.67 0.36093 0.38976 0.46093 0.01 0.69-2.69 1.7791-8.2203 0.28907-12.32-0.23-0.62-0.92875-1.64-1.9688-1.75zm-28.092 9.6016c-0.438-0.02-0.92109 0.10938-1.3711 0.60938-2.555 2.83-2.9782 9.4298-0.7832 12.51 0.625 0.88 0.70274 0.39008 0.67774-0.16992-0.177-4.19 1.7346-8.6301 3.2676-10.08 0.616-0.58 0.41273-2.0505-0.69727-2.5605-0.263-0.12-0.65575-0.2886-1.0938-0.3086zm53.381 0.89844c-0.34 0.04-0.68906 0.16039-1.0391 0.40039-0.55 0.37-1.1504 1.0512-0.90039 2.2012 0.22 1.02 1.1105 2.1595 2.5605 3.4395 0.84 0.75 1.4993 1.5295 2.0293 2.5195 0.83 1.54 1.3104 2.7912 1.4004 3.0312 0.21 0.56 0.42 0.66906 0.5 0.0391 0.13-0.97 0.56922-6.9701-2.0508-10.33-0.53-0.69-1.47-1.3908-2.5-1.3008zm-73.049 12.531c-0.278-0.02-0.5823 0.0405-0.9043 0.23047-3.476 2.03-3.6768 8.7601-2.4688 12.08 0.317 0.88 0.55455 0.69969 0.68555-0.57031 0.29-2.67 0.85869-6.3399 3.5547-8.9199 0.997-0.95 0.33581-2.7303-0.86719-2.8203z" fill="#fff" transform="translate(0 -.00044250)"/><path d="m115.5 118.68c-5.63 0.08-10.401 1.1105-13.971 2.2305-0.14 0.03-0.26844 0.0696-0.39844 0.0996-0.04 0-0.0811 0.0193-0.12109 0.0293-0.03 0.01-0.0501 0.0115-0.0801 0.0215-0.29 0.09-0.58891 0.17954-0.87891 0.26953-0.144 0.05-0.28555 0.0906-0.43555 0.14063-0.05 0.01-0.09372 0.0191-0.13672 0.0391-0.019 0.01-0.0435 0.01-0.0625 0.0195-0.111 0.04-0.2288 0.0713-0.3418 0.11133-1.266 0.46-2.8433 1.1602-4.5293 2.1602-0.059 0.03-0.08984 0.0488-0.08984 0.0488h0.0039c-3.73 2.24-7.9693 5.9795-10.445 12.02v0.0117s-0.0048-0.00024-0.0098 0.01c-1.193 2.91-1.7288 5.5985-1.8848 7.9785-0.219 4.31 0.77344 7.4512 0.77344 7.4512 0.006 0.01 0.0098 0.0291 0.0098 0.0391 0.455 1.1 2.5933 5.0812 11.197 9.7812 1.147 0.6 2.4167 1.2599 3.6777 1.9199 0.009 0.01 0.02501 0.0195 0.04102 0.0195 0.008 0.01 0.0076 0.01 0.01758 0.01 2.414 1.19 5.3338 2.2892 7.6738 3.1992 0.21 0.09 0.38984 0.16023 0.58984 0.24023 0.3 0.12 0.60086 0.24157 0.88086 0.35157 0.22 0.09 0.44867 0.16976 0.63867 0.25976 0.32 0.13 0.6018 0.25891 0.8418 0.37891 0.41 0.19 0.73898 0.35 0.95898 0.5 0.13 0.09 0.21078 0.16976 0.30078 0.25976 0.01 0.02 0.0484 0.0403 0.0684 0.0703 0.09 0.1 0.15141 0.21054 0.19141 0.31054 0.01 0.04 0.0193 0.0694 0.0293 0.10938 0 0.01 0.01 0.0212 0.01 0.0312 0.01 0.04 0.0195 0.0791 0.0195 0.11914 0.01 0.13-0.009 0.26039-0.0293 0.40039-0.03 0.15-0.0696 0.32047-0.0996 0.48047-0.01 0.06-0.021 0.0984-0.041 0.14844-0.04 0.16-0.0884 0.30039-0.14844 0.40039-0.06 0.08-0.13117 0.13992-0.20117 0.16992-0.11 0.05-0.23867 0.05-0.38867 0-0.01 0-0.031-0.0195-0.041-0.0195-0.06-0.04-0.12898-0.0694-0.20898-0.10938-0.2-0.11-0.4218-0.25133-0.5918-0.36133-0.14-0.08-0.23836-0.10937-0.31836-0.10937-0.12 0.01-0.19976 0.0694-0.25976 0.18945-0.09 0.19-0.1211 0.50078-0.1211 0.80078 0 0.08-0.00023 0.16024 0.01 0.24024v0.01c0.02 1.04-0.0387 1.9798-0.13867 2.8398-0.42 3.51-1.6116 6.0507-1.9316 7.9707-0.01 0.16 0.18148 0.38 0.27148 0.5 0.73 0.96 8.8791 1.5293 12.289 1.5293 6.3 0 8.7693-1.2806 9.2793-1.5606 0.58-0.34 0.92164-0.63 0.93164-1 0-0.13-0.0298-0.26992-0.0898-0.41992-0.38-0.77-0.69141-1.4603-0.94141-2.0703-0.88-2.15-1.0491-3.4388-1.0391-4.5488 0-0.32 0.0191-0.60992 0.0391-0.91992 0.01-0.15 0.01-0.30094 0.0195-0.46094 0.01-0.3 0.0315-0.61875 0.0215-0.96875 0-0.34-0.0301-0.70133-0.0801-1.1113-0.04-0.33-0.10141-0.55875-0.19141-0.71875-0.09-0.15-0.18836-0.21141-0.31836-0.19141-0.06 0.01-0.12117 0.0399-0.20117 0.0898-0.07 0.05-0.13875 0.12094-0.21875 0.21093-0.13 0.15001-0.24133 0.25961-0.36133 0.34961-0.35 0.27-0.63883 0.32985-0.79883 0.33985-0.18 0.02-0.31984-0.0403-0.33984-0.32031-0.01-0.11 0.0184-0.26875 0.0684-0.46875 0.02-0.1 0.0518-0.20008 0.0918-0.33008 0.15-0.46 0.32883-0.86953 0.54883-1.2695 0.08-0.15 0.16976-0.30141 0.25976-0.44141 0.59-0.91 1.3798-1.6486 2.3398-2.3086 0.03-0.03 0.0498-0.0403 0.0898-0.0703 0-0.01 0.021-0.0215 0.041-0.0215 0.31-0.22 0.6693-0.42867 1.0293-0.63867 0.71-0.41 1.5113-0.80117 2.3613-1.2012 2.18-1.03 4.8186-2.1095 7.8086-3.6895 1.5-0.79 3.0898-1.6993 4.7598-2.7793 0.84-0.55 1.2803-0.86008 1.5703-1.0801 0.23-0.17 0.36977-0.29992 0.50977-0.41992 0.1-0.1 0.23086-0.21008 0.38086-0.33008 0.08-0.07 0.15023-0.12117 0.24023-0.20117 0.24-0.18 0.78875-0.64946 1.4688-1.1895l0.30078-0.24023c0.12-0.09 0.23961-0.18906 0.34961-0.28906 0.48-0.37 0.98117-0.74985 1.4512-1.0898 0.82-0.57 1.5389-1.0002 1.8789-0.99023 0.04 0.01 0.0813 0.0191 0.11133 0.0391 0 0.01 0.0193 0.01 0.0293 0.01 0.03 0.03 0.0506 0.0709 0.0606 0.13085 0.14 1.1-0.001 1.7605-0.28125 2.2305-0.6 1.05-1.8004 1.2092-1.9004 3.1992 0 0.08-0.009 0.16024-0.0391 0.24024-0.03 0.15-0.0899 0.29968-0.16992 0.42968-0.07 0.13-0.15024 0.24938-0.24024 0.35938l-0.10937 0.11133c-0.05 0.06-0.10992 0.12945-0.16993 0.18945-0.05 0.04-0.0809 0.0791-0.13085 0.11914-0.16 0.16-0.33954 0.31094-0.51954 0.46094 0 0-0.0195-0.00024-0.0195 0.01-0.54 0.44-1.1104 0.84071-1.4004 1.2207-0.08 0.1-0.18125 0.27-0.28125 0.5-0.26 0.54-0.55883 1.3697-0.79883 2.1797-0.11 0.42-0.20929 0.83922-0.27929 1.1992-0.16 0.94-0.3 1.7806-0.5 2.5606-0.38 1.5-0.99063 2.7502-2.3906 3.9902-0.21 0.18001-0.43968 0.35907-0.67969 0.53907-0.22999 0.18-0.5607 0.40109-0.9707 0.62109-0.63 0.34-1.4594 0.69969-2.4394 0.92969-0.98 0.22-2.0998 0.30914-3.3398 0.11914-0.13999-0.02-0.31117-0.0501-0.45117-0.0801-0.15-0.03-0.29898-0.0498-0.45898-0.0898-0.46-0.12-1.0009-0.15969-1.4609 0.0703-0.12 0.06-0.22984 0.13023-0.33984 0.24023-0.04 0.04-0.0696 0.0811-0.0996 0.1211-0.03 0.05-0.0696 0.0789-0.0996 0.1289s-0.0598 0.0999-0.0898 0.16993c-0.08 0.14-0.14093 0.28992-0.21093 0.41992-0.3 0.69-0.43946 1.2509-0.43946 1.7109 0.02 1.16 0.95954 1.73 2.5195 2.25 0.01 0.01 0.0193 0.01 0.0293 0.01 0.48 0.17 1.0406 0.33 1.6406 0.5 0.27 0.08 0.54008 0.16024 0.83008 0.24024 0.31 0.1 0.65023 0.19882 0.99023 0.29882h0.01c2.01 0.59 3.9406 1.2006 7.3906 1.6406 3.47 0.43 4.5606 4.5898 4.5606 4.5898s0.74859 1.6598 1.0586 2.5098v-0.0293l-0.0293-0.0703c0.03-0.02 0.8304-0.49977 1.9004-1.2598 0.63-0.46 1.3696-1.0011 2.0996-1.6211 0.15-0.13 0.29946-0.24914 0.43946-0.36914 1.01-0.88 1.9897-1.8809 2.6797-2.8809 0.11-0.15 0.20078-0.30899 0.30078-0.45899 0.1-0.16999 0.18953-0.33 0.26953-0.5 0-0.01 0.01-0.01 0.01-0.0195 0.01-0.03 0.0308-0.0616 0.0508-0.10156 0.01-0.03 0.0191-0.0481 0.0391-0.0781 0.01-0.02 0.0215-0.0408 0.0215-0.0508 0.01-0.01 0.01-0.0193 0.01-0.0293 0.01 0-0.00024-0.002 0.01-0.0117 0.02-0.04 0.0288-0.0889 0.0488-0.12891 0.03-0.1 0.0716-0.17929 0.10156-0.27929 0.01-0.03 0.0193-0.0601 0.0293-0.0801 0-0.02 0.01-0.0503 0.0195-0.0703 0.02-0.06 0.0308-0.13141 0.0508-0.19141 0.03-0.09 0.0501-0.16977 0.0801-0.25977v-0.0195c0-0.02 0.01-0.0291 0.01-0.0391 0.04-0.16 0.0794-0.32 0.10937-0.5 0.01-0.04 0.0312-0.10039 0.0312-0.15039 0.02-0.08 0.0388-0.16977 0.0488-0.25977 0.02-0.09 0.0308-0.18148 0.0508-0.27148v-0.0293s0.01-0.01 0.01-0.0195c0.02-0.09 0.0193-0.18125 0.0293-0.28125 0.01-0.09 0.031-0.17953 0.041-0.26953v-0.0586c0.01-0.03 0.01-0.0811 0.0195-0.1211 0.01-0.17 0.0291-0.33953 0.0391-0.51953v-0.0312c0.01-0.04 0.0115-0.0794 0.0215-0.10937 0.01-0.18 0.0195-0.38055 0.0195-0.56055 0.01-0.07 0.01-0.14898 0.01-0.20899 0.01-0.09 0.01-0.17 0.01-0.25 0-0.09 0.01-0.17953 0.01-0.26953v-0.1914-0.45899-0.4707-0.0293-0.0195c-0.01-0.34-0.0293-0.66976-0.0293-1.0098v-0.0117c0-0.01 0.00023-0.01-0.01-0.01v-0.01-0.0703c-0.02-0.32-0.0405-0.64851-0.0605-0.97851v-0.0215s0.00023-0.01-0.01-0.0195c-0.02-0.31-0.0501-0.63898-0.0801-0.95898 0-0.02 0.00024-0.0501-0.01-0.0801v-0.0606c-0.01-0.18-0.0408-0.33976-0.0508-0.50976-0.02-0.18-0.0386-0.34953-0.0586-0.51953v-0.0312c0-0.02-0.0117-0.0503-0.0117-0.0703-0.03-0.21-0.0581-0.41867-0.0781-0.63867-0.01-0.11-0.0308-0.22008-0.0508-0.33008 0-0.06 0.00047-0.11015-0.0195-0.16015-0.01-0.13-0.0308-0.26063-0.0508-0.39063-0.02-0.17-0.0503-0.33976-0.0703-0.50976-0.01-0.05-0.0193-0.10063-0.0293-0.14063 0-0.04-0.01-0.0794-0.0195-0.10937-0.01-0.11-0.0308-0.22008-0.0508-0.33008-0.02-0.15-0.0503-0.29922-0.0703-0.44922-0.02-0.12-0.0406-0.25109-0.0606-0.37109l-0.11914-0.62891c0-0.03-0.0195-0.0616-0.0195-0.10156-0.02-0.14-0.0403-0.27016-0.0703-0.41016-0.01-0.05-0.031-0.0887-0.041-0.13867-0.01-0.11-0.0288-0.21055-0.0488-0.31055-0.01-0.08-0.031-0.1507-0.041-0.2207-0.01-0.03-0.0195-0.0598-0.0195-0.0898-0.06-0.31-0.12922-0.64875-0.19922-0.96875-0.08-0.4-0.15024-0.79094-0.24024-1.2109v-0.01c-0.03-0.18-0.0696-0.35906-0.0996-0.53906-0.06-0.24-0.10992-0.49047-0.16992-0.73047v-0.0312-0.0195c-0.01-0.06-0.021-0.11992-0.041-0.16992 0-0.05-0.01-0.0887-0.0195-0.13867-0.02-0.11-0.0403-0.21008-0.0703-0.33008 0-0.01 0.00024-0.0408-0.01-0.0508-0.01-0.06-0.031-0.10992-0.041-0.16993-0.02-0.08-0.0288-0.15046-0.0488-0.23046 0-0.04 0.00047-0.0699-0.0195-0.0898v-0.01c0-0.03 0.00024-0.0405-0.01-0.0606v-0.0293c-0.02-0.04-0.0312-0.0809-0.0312-0.13086 0 0-0.01-0.01-0.01-0.0195 0-0.02-0.01-0.0503-0.01-0.0703-0.02-0.07-0.0308-0.12922-0.0508-0.19922v-0.0312c-0.01 0-0.01-0.01-0.01-0.01-0.01-0.03-0.01-0.0699-0.0195-0.0899-0.01-0.05-0.009-0.10039-0.0293-0.15039 0-0.01-0.002-0.0193-0.0117-0.0293 0-0.02 0.00024-0.0403-0.01-0.0703l-0.0293-0.15039v-0.01c0-0.01-0.01-0.0193-0.01-0.0293-0.02-0.09-0.0503-0.1893-0.0703-0.2793v-0.041s-0.01-0.01-0.01-0.0195c0-0.01-0.01-0.031-0.01-0.041l-0.0312-0.14844v-0.01l-0.01-0.0117c-0.02-0.11-0.0403-0.20836-0.0703-0.31836v-0.041c-0.01 0-0.01-0.01-0.01-0.01v-0.01c-0.01-0.05-0.0191-0.11969-0.0391-0.17969-0.01-0.06-0.031-0.11992-0.041-0.16992-0.02-0.07-0.0291-0.1314-0.0391-0.1914l-0.0293-0.0586v-0.01c0-0.01 0.01-0.0308 0-0.0508 0-0.02-0.0115-0.0405-0.0215-0.0605v-0.01c-0.03-0.12-0.0601-0.23937-0.0801-0.35937-0.02-0.06-0.0386-0.13117-0.0586-0.20117v-0.0195c-0.04-0.18-0.0909-0.35906-0.13086-0.53906v-0.01c0-0.01-0.01-0.0212-0.01-0.0312-0.01-0.03-0.0195-0.0598-0.0195-0.0898v-0.01c-0.01-0.02-0.0215-0.0308-0.0215-0.0508l-0.0898-0.35938v-0.01-0.0195c-0.01-0.02-0.0195-0.0308-0.0195-0.0508 0-0.01 0.00023-0.0293-0.01-0.0293v-0.0215c0-0.03-0.0195-0.0598-0.0195-0.0898-0.01 0-0.01 0.00023-0.01-0.01-0.03-0.1-0.0501-0.21031-0.0801-0.32031 0-0.01-0.01-0.01-0.01-0.0195v-0.0195c0-0.01-0.0117-0.031-0.0117-0.041-0.01-0.03-0.0193-0.0581-0.0293-0.0781 0-0.02 0.00023-0.0408-0.01-0.0508v-0.01-0.01c-0.02-0.08-0.0503-0.16023-0.0703-0.24023 0-0.03-0.01-0.0598-0.0195-0.0898 0-0.01-0.01-0.0115-0.01-0.0215-0.01-0.06-0.031-0.11969-0.041-0.17969l-0.01-0.01c-0.03-0.09-0.0403-0.17-0.0703-0.25-0.01-0.04-0.01-0.0696-0.0195-0.0996h-0.01v-0.0195c-0.02-0.06-0.0308-0.11016-0.0508-0.16016v-0.01c-0.01-0.03-0.0195-0.0503-0.0195-0.0703-0.03-0.11-0.0699-0.21054-0.0898-0.31054v-0.0195c-0.01-0.01-0.01-0.01-0.01-0.0195l-0.0293-0.0898c0-0.01-0.0117-0.0215-0.0117-0.0215-0.06-0.21-0.11968-0.39985-0.17968-0.58985-0.04-0.15-0.0887-0.30922-0.13868-0.44922v-0.01-0.0195c-0.01 0 0.00024-0.0117-0.01-0.0117-0.01-0.03-0.0212-0.0601-0.0312-0.0801v-0.01-0.01c-0.02-0.06-0.0505-0.11945-0.0606-0.18946-0.03-0.05-0.0384-0.10968-0.0684-0.17968-0.01-0.03-0.0115-0.0501-0.0215-0.0801-0.01-0.02-0.0195-0.0501-0.0195-0.0801-0.02 0-0.01 0.00024-0.01-0.01-0.03-0.07-0.0501-0.14094-0.0801-0.21094-0.01-0.04-0.0193-0.0794-0.0293-0.10938h-0.01c-0.02-0.04-0.0213-0.0694-0.0312-0.10937h-0.01c0-0.01 0.00024-0.031-0.01-0.041 0-0.01 0.00023-0.01-0.01-0.0195v-0.01c-0.02-0.05-0.0405-0.0904-0.0605-0.1504-0.02-0.05-0.0388-0.10039-0.0488-0.15039v-0.01l-0.0117-0.01v-0.01c-0.02-0.04-0.0388-0.0909-0.0488-0.13086v-0.01c-0.03-0.07-0.0598-0.1407-0.0898-0.2207-0.01-0.03-0.021-0.0598-0.041-0.0898v-0.01c-0.01-0.02-0.0193-0.0503-0.0293-0.0703s-0.0193-0.0484-0.0293-0.0684c-0.04-0.12-0.0809-0.2318-0.13086-0.3418 0 0-0.01 0.00024-0.01-0.01 0-0.01-0.01-0.01-0.01-0.0195-0.01-0.03-0.0113-0.0501-0.0312-0.0801-0.19-0.46-0.38938-0.88907-0.60938-1.2891-0.87-1.45-0.80047-1.74-1.2305-3-0.43-1.28-0.50976-3.041-0.50976-3.041 0.01 0.02 0.01 0.0308 0.0195 0.0508-0.01-0.04-0.0193-0.0809-0.0293-0.13086v-0.0195c0-0.02-0.01-0.0501-0.0195-0.0801v-0.0195-0.0898-0.0215c0-0.05 0.0191-0.11992 0.0391-0.16992v-0.0195c0.01-0.02 0.0208-0.0405 0.0508-0.0606v-0.0195c0.02-0.03 0.0403-0.0386 0.0703-0.0586v-0.0117c0.03-0.01 0.0596-0.0291 0.0996-0.0391 0.03-0.01 0.0596-0.0195 0.0996-0.0195 0.01 0 0.0193-0.01 0.0293-0.01 0.04 0 0.0909-0.00024 0.13086 0.01 0.02 0 0.031-0.00023 0.041 0.01 0.05 0.01 0.1082 0.0191 0.1582 0.0391 0.02 0 0.031-0.00023 0.041 0.01 0.07 0.01 0.13898 0.0303 0.20898 0.0703h0.0117c0.03 0.01 0.0601 0.021 0.0801 0.041 0 0 1.25 0.57937 2.25 2.1094 0.36 0.54 0.69953 1.0706 1.0195 1.5606-0.07-0.68-0.10125-1.2995-0.0312-1.7695 0.32-2.28-0.25844-3.6913 2.8516-5.3613 2.02-1.08 5.0891-5.8601 7.2891-9.0801 0.05-0.12 0.0798-0.20906 0.0898-0.28906 0.01-0.23-0.32031-0.0312-0.32031-0.0312h-0.01c-3.88 3.2-8.3994 2.5202-9.4394 2.2402-0.39-0.11-1.6695-0.3489-3.2695-0.6289-1.59 0-1.6798 0.75015-1.5898 1.1602 0.02 0.08 0.0501 0.17 0.0801 0.25 0.04 0.14 0.0794 0.26891 0.10937 0.37891 0.11 0.45 0.69954 1.6602 0.26954 1.6602 0 0-0.22961 0.12946-0.59961-0.0605-0.4-0.12-1.0411-0.38875-1.6211-0.96875-0.86-0.86-1.0482-2.6295-2.9082-4.0195l-0.0312-0.0312c-0.12-0.08-0.22938-0.16024-0.35938-0.24024-0.15-0.1-0.3107-0.19859-0.4707-0.30859-0.09-0.06-0.17976-0.10992-0.25976-0.16992-3.12-1.99-5.9091-3.5119-8.3692-4.6719-1.48-0.78-3.1605-1.4784-5.0605-2.0684-2.41-0.83-4.2798-1.2416-5.5898-1.4316-3.92-0.8-7.6102-1.0893-10.99-1.0293zm52.51 8.7012s-1.4588 7.92-5.2988 11.75c0 0-0.31039 0.55851-0.15039 0.72851 0.15 0.16 2.7196 0.4411 4.8496-3.1289 2.14-3.56 1.9996-6.8096 0.59961-9.3496zm-105.87 1.0781c-1.47 2.68-1.63 6.1013 0.625 9.8613 2.263 3.76 4.9648 3.4588 5.1328 3.2988 0.17-0.17-0.16797-0.76953-0.16797-0.76953-4.045-4.04-5.5898-12.391-5.5898-12.391zm2.6973 0.65039c-0.264-0.05-0.35097 0.15063 0.33203 1.1406 0.005 0.01 0.0039 0.01 0.0039 0.01 1.734 2.56 3.8018 5.5994 5.4688 7.1094 0.041 0.04 2.814 2.75 3.168 4.5 0.348 1.75 0.77664 4.5701-1.1934 10.58-0.385 0.95-1.2836 3.1212-1.3516 3.2012-0.139 0.39-0.29189 0.80953-0.46289 1.2695-0.099 0.27-0.19683 0.55937-0.29883 0.85937-0.311 0.88-0.64075 1.8411-0.96875 2.8711-0.077 0.23-0.15456 0.46898-0.22656 0.70898-0.063 0.18-0.11669 0.37055-0.17969 0.56055-0.036 0.13-0.08009 0.26086-0.12109 0.38086-0.089 0.29-0.17558 0.5889-0.26758 0.8789-0.17 0.54-0.33252 1.0811-0.47852 1.6211-0.553 1.87-1.0174 3.6494-1.3594 5.3594-0.052 0.27-0.1063 0.52907-0.1543 0.78907-0.061 0.35-0.11592 0.70101-0.16992 1.041-0.057 0.4-0.10944 0.79922-0.14844 1.1992l-0.0059-0.01s-1.2496 6.5495 1.9824 13.27l0.77539 1.4316c1.108 1.87 3.3827 5.1389 6.9727 7.8789 0.097 0 0.1862-0.009 0.2832-0.0293 0.377-0.08 0.72978-0.31016 1.0508-0.66016 0.083-0.09 0.16128-0.20078 0.23828-0.30078 0.053-0.08 0.11878-0.14047 0.17578-0.23047 1.168-1.75 1.8156-4.9788 1.8496-6.9688 0.018-0.61-0.03472-1.1104-0.13672-1.4004-0.006-0.01-0.0087-0.0195-0.01367-0.0195-0.035-0.09-0.07319-0.16094-0.11719-0.21094-3.55-3.81-4.7427-4.8596-6.5137-7.3496-0.213-0.3-0.37353-0.63023-0.51953-0.99023-0.505-1.28-0.60908-2.8901-0.45508-4.3301 0-0.07 0.0096-0.12922 0.01758-0.19922 0.004-0.06 0.01248-0.10969 0.02148-0.17969 0.121-1.04 0.36927-2.52 0.69727-4.25 0.423-2.22 0.97508-4.8601 1.5801-7.5801 0.175-0.8 0.35592-1.5904 0.54492-2.4004 0.525-2.28 1.0642-4.5496 1.5742-6.5996 0.025-0.12 0.05012-0.23156 0.07813-0.35156 0.034-0.12 0.06375-0.22961 0.09375-0.34961 0.726-2.9 1.3639-5.2793 1.7559-6.5293 0.012-0.02 0.01258-0.0308 0.01758-0.0508 0.005 0 0.0068-0.01 0.0098-0.0195 0-0.01-0.0011-0.01 0.0039-0.01 0.163-0.55 0.23642-0.98985 0.23242-1.3398-0.005-0.27-0.057-0.47062-0.125-0.64062-0.127-0.29-0.32683-0.4593-0.54883-0.5293-0.04-0.01-0.06742-0.041-0.10742-0.041-0.084-0.03-0.17286-0.0291-0.25586-0.0391-0.086 0-0.16705-0.00047-0.24805 0.0195-0.348 0.07-0.97424-0.0198-1.6152-0.25976 2.197-4.23 5.2154-9.2101 8.6504-12.58-0.892 0.16-3.3369 0.5993-10.047 1.7793-0.875 0.16-1.6954 0.23047-2.4824 0.23047-2.664 0.01-4.7416-0.85938-6.2676-1.8594h-0.0039c-0.065-0.04-0.13031-0.0811-0.19531-0.12109-0.158-0.1-0.38006-0.22977-0.53906-0.25977zm16.025 26.471c-0.006 0.01-0.01548 0.0193-0.02148 0.0293-0.013 0.01-0.03588 0.0213-0.04687 0.0312-0.349 0.34-0.3288 1.7602-0.0918 2.9102 0.149 0.53 0.20222 1.0384 0.19922 1.5684-0.006 0.18-0.01225 0.35125-0.03125 0.53125-0.012 0.17-0.02592 0.33976-0.04492 0.50976-0.022 0.13-0.04531 0.27016-0.07031 0.41016-0.028 0.18-0.05103 0.34883-0.08203 0.54883-0.101 0.53-0.22289 1.11-0.33789 1.75-0.052 0.31-0.11383 0.64023-0.17383 0.99023-0.049 0.32-0.09067 0.61992-0.13867 0.91992-0.204 1.44-0.30883 2.4801-0.29883 3.3301 0 0.07 0.0039 0.14094 0.0059 0.21094v0.10937c0.046 1 0.26162 1.7502 0.64062 2.6602 0.183 0.45 0.35673 0.96 0.67773 1.5 0.004 0.01 0.0039 0.01 0.0039 0.0195 0.13 0.27 0.3318 0.53149 0.5918 0.77149 1.641 1.78 4.7802 2.5087 7.7832 3.1387 0.952 0.2 1.8531 0.35117 2.6211 0.45117 0.232 0.03 0.44848 0.0584 0.64648 0.0684 2.323 0.22 4.6884-0.28828 6.1914-0.98828 0.725-0.33 1.2568-0.71031 1.4668-1.0703 0.11-0.16 0.13914-0.32071 0.11914-0.47071-0.02-0.07-0.0594-0.15047-0.10938-0.23047-0.12-0.16-0.23961-0.29992-0.34961-0.41992-0.768-0.85-1.491-0.8593-2.373-0.7793-0.028 0.01-0.05098 0.01-0.08398 0.01-0.537 0.05-1.0547 0.0896-1.5527 0.0996-0.624 0-1.2163-0.0298-1.7793-0.0898-3.015-0.35-5.1993-1.7191-6.7363-3.7891-0.245-0.32-0.46083-0.65-0.67383-1-0.102-0.17-0.20083-0.35125-0.29883-0.53125-0.104-0.2-0.19492-0.39961-0.29492-0.59961-0.87-1.85-1.4073-4.0302-1.6973-6.4102-0.055-0.56-0.1387-1.0292-0.2207-1.4492-0.029-0.14-0.06094-0.28969-0.08594-0.42969-0.009-0.03-0.01639-0.0813-0.02539-0.11133l-0.0039-0.01v-0.0195c-0.034-0.13-0.06937-0.26086-0.10938-0.38086-0.279-0.96-0.63272-1.5095-1.0117-1.9395-0.04-0.05-0.08791-0.11015-0.12891-0.16015-0.028-0.03-0.05036-0.0499-0.06836-0.0899-0.249-0.3-0.6-0.73007-1-1.0801-0.252-0.21-0.51992-0.39953-0.79492-0.51954-0.038-0.01-0.06547 0-0.10547 0-0.034 0-0.07347-0.01-0.10547 0zm33.41 61.359c-0.13-0.01-1.1509-0.00023-2.2109 0.01h-0.10938-0.0996l-0.23047 0.01h-0.49024-0.81054c-0.41 0.01-0.68946 0.0117-0.68946 0.0117s-0.009-0.01-0.0293 0h-0.0312-0.01s-0.01 0.01-0.0195 0.01c-0.03 0.01-0.0601 0.0303-0.0801 0.0703 0 0.01-0.01 0.0293-0.01 0.0293-0.02 0.05-0.0295 0.0995-0.0195 0.18946 0.01 0.03 0.0193 0.0994 0.0293 0.18945 0.05 0.35 0.14938 1.1202 0.35938 1.9902 0.11 0.41 0.25015 0.84125 0.41015 1.2812 0.08 0.24 0.18102 0.48851 0.29102 0.72851l0.01 0.0117c0.03 0.06 0.0599 0.12945 0.0899 0.18945 0.11 0.22 0.24062 0.41914 0.39062 0.61914 0.1 0.15 0.22961 0.31141 0.34961 0.44141 0.09 0.1 0.1893 0.1893 0.2793 0.2793 0.13 0.12 0.26086 0.22054 0.38086 0.31054 0.04 0.04 0.0696 0.0598 0.0996 0.0898 0.1 0.07 0.20078 0.13922 0.30078 0.19922v0.01c0.01 0 0.01-0.00023 0.0195 0.01 0.06 0.03 0.12898 0.0811 0.20898 0.12109 0 0 0.0115-0.00023 0.0215 0.01 0 0 0.01-0.00024 0.0195 0.01 0.07 0.03 0.12945 0.0601 0.18945 0.0801 0.07 0.03 0.12922 0.0601 0.19922 0.0801 0.13 0.06 0.26039 0.10086 0.40039 0.13086 0.03 0 0.0696 0.01 0.0996 0.0195 0.03 0 0.0501-0.00023 0.0801 0.01 0.13 0.03 0.27016 0.0603 0.41016 0.0703h0.0215c0.12 0.02 0.25867 0.0291 0.38867 0.0391 0.54 0.05 1.1712 0.0709 1.9512 0.13086 0.33 0.02 0.65852 0.0293 0.97852 0.0293 1.58 0 3.0714-0.28016 3.9414-0.91016 0.29-0.22 0.52039-0.46 0.65039-0.75 0.05-0.09 0.0794-0.1793 0.10937-0.2793 0.4-1.56 0.67969-4.8711 0.67969-4.8711s0.0192-0.25977-0.0508-0.25977c-0.95-0.25-4.5796-0.27953-4.5996-0.26953h-0.0293c-0.06 0.01-0.15094 0.07-0.21094 0.25-0.01 0.02-0.0195 0.0401-0.0195 0.0801-0.04 0.09-0.0791 0.23969-0.11914 0.42969-0.04 0.09-0.0716 0.20054-0.10156 0.31054v0.01c-0.04 0.1-0.0696 0.21008-0.0996 0.33008-0.28 0.85-0.67031 1.8398-1.0703 1.8398-0.67-0.02-1.3298-2.0193-1.5898-2.5293-0.06-0.13-0.11015-0.23032-0.16015-0.32032-0.01-0.04-0.0388-0.0794-0.0488-0.10937-0.03-0.07-0.0403-0.10063-0.0703-0.14063 0-0.02-0.0193-0.0505-0.0293-0.0605-0.01-0.02-0.0117-0.0391-0.0117-0.0391s0.00024-0.01-0.01-0.01l-0.01-0.0117c-0.03-0.04-0.10906-0.0996-0.28906-0.0996z" transform="translate(0 -.00044250)" stroke="#c3993f" stroke-width="1.25" fill="#c3993f"/><path d="m170.99 116.98c-1.12 0.02-1.7302 0.27046-1.9902 0.48046h-0.01c-0.01 0.01-0.21093 0.25922 0.53907 0.44922 0.19 0.05 0.51039 0.0409 0.90039 0.13086 0.84 0.19 1.9905 0.59961 2.9805 1.3496 0.21 0.16 0.40961 0.32953 0.59961 0.51953 0.5 0.5 0.92984 1.0199 1.3398 1.9199 0.31 0.70001 0.61086 1.63 0.88086 3 0.07 0.34001 0.13875 0.66071 0.21875 0.97071 0.51 2.2 1.161 3.8198 2.541 4.0898 0.09 0.03 0.16954 0.0603 0.26954 0.0703h0.01 0.31055c0.8 0 1.9588-0.18117 3.0488-0.20117s2.0805 0.13 2.5605 0.75c0.07 0.1 0.12992 0.20078 0.16993 0.30078 0.07 0.17 0.11992 0.37891 0.16992 0.62891 0.01 0.02 0.01 0.0306 0.0195 0.0606 0 0.06 0.0212 0.15047 0.0312 0.23047 0.01 0.06 0.0193 0.12921 0.0293 0.19921v0.0312c0.24 2.01 0.0311 5.5394-0.12891 7.8594-0.03 0.42-0.0601 0.78937-0.0801 1.1094-0.02 0.28-0.031 0.51118-0.041 0.70118-0.07 0.97-0.2404 2.3686-0.4004 3.8086-0.16 1.41-0.30937 2.87-0.35937 4-0.01 0.24-0.0195 0.45016-0.0195 0.66016 0 0.18 0.01 0.34976 0.0195 0.50976 0.01 0.1 0.0193 0.20102 0.0293 0.29102 0.02 0.17 0.0516 0.30015 0.10156 0.41015 0.06 0.12 0.12851 0.20899 0.22851 0.20899 0.07-0.01 0.17125-0.0797 0.28125-0.17969 0.3-0.29 0.69954-0.96016 1.2695-2.1602 0.84-1.81 1.5194-3.9594 2.1094-6.4394 0.67-2.81 1.241-6.04 1.791-9.75 0.57-3.83 1.5188-6.8597-0.53125-9.4297-0.02-0.01-0.0195-0.0212-0.0195-0.0312-0.09-0.1-0.19883-0.20836-0.29883-0.31836-0.06-0.06-0.10992-0.1314-0.16993-0.1914-0.05-0.04-0.10062-0.0691-0.14062-0.11914-0.45-0.42-0.98031-0.80039-1.5703-1.1504h-0.01c-0.44-0.28-0.90969-0.54907-1.4297-0.78907 0 0-0.0203-0.021-0.0703-0.041-0.11-0.05-0.36976-0.17961-0.75976-0.34961-0.38-0.18-0.86039-0.39086-1.4004-0.63086-0.92-0.39-1.9905-0.81992-2.9805-1.1699-0.16-0.05-0.31875-0.11016-0.46875-0.16016-3.6-1.16-6.8418-1.459-6.8418-1.459-0.46-0.03-0.76906-0.0698-1.0391-0.0898-0.45-0.05-0.76992-0.0801-1.4199-0.0801h-0.0293-0.23047-0.01zm-56.09 5.3789c-0.09 0-0.17977 0.01-0.25977 0.01-1.97 0.02-3.8809 0.28093-5.7109 0.71093-0.73 0.18001-1.4504 0.36961-2.1504 0.59961-0.04 0-0.0699 0.0195-0.0899 0.0195-0.01 0.01-0.0195 0.0117-0.0195 0.0117-0.07 0.02-0.13094 0.0384-0.21094 0.0684-0.26 0.09-0.51953 0.18125-0.76953 0.28125-0.4 0.15-0.78968 0.30875-1.1797 0.46875-0.15 0.06-0.28946 0.13118-0.43946 0.20118-0.46 0.2-0.94062 0.40867-1.3906 0.63867-5.143 2.59-9.4068 6.6115-12.344 11.021-0.519 0.78-0.98197 1.5594-1.418 2.3594-1.083 1.99-1.9047 4.0198-2.3887 6.0098-0.027 0.09-0.0385 0.18125-0.0625 0.28125-0.024 0.09-0.04436 0.1893-0.06836 0.2793-0.03 0.13-0.04345 0.24914-0.06445 0.36914-0.019 0.11-0.03297 0.21078-0.04297 0.30078-0.009 0.1-0.02344 0.21078-0.02344 0.30078 0 0.26 0.02989 0.44985 0.08789 0.58985 0.01 0.02 0.0212 0.0288 0.0332 0.0488 0.053 0.1 0.12289 0.17094 0.21289 0.21094 0.021 0.01 0.03359 0.0291 0.05859 0.0391 0.071 0.02 0.14747 0.0312 0.23047 0.0312 0.016 0 0.04055-0.0117 0.06055-0.0117 0.398-0.04 0.90442-0.31961 1.3574-0.59961 0.213-0.13 0.42066-0.25938 0.59766-0.35938 4.539-2.62 9.1724-4.1793 12.484-4.7793 0.38-0.07 0.73813-0.12015 1.0781-0.16015 1.03-0.13 1.87-0.15055 2.5-0.0606 0.2 0.03 0.36148 0.0694 0.52148 0.10938 0.06 0.02 0.12969 0.031 0.17969 0.041 0.1 0.03 0.17024 0.0599 0.24024 0.0899 0.08 0.03 0.17023 0.0598 0.24023 0.0898l0.0195 0.0195c0.07 0.03 0.11016 0.0694 0.16016 0.10938 0.06 0.04 0.12015 0.0713 0.16015 0.11132 0.02 0.02 0.0191 0.0386 0.0391 0.0586 0.05 0.06 0.10086 0.12164 0.13086 0.18164 0.02 0.08 0.0293 0.16023 0.0293 0.24023-0.01 0.08-0.0305 0.15828-0.0605 0.23828-0.07 0.16-0.17836 0.31118-0.31836 0.45118-0.05 0.04-0.10039 0.0887-0.15039 0.13867-0.05 0.03-0.10039 0.0811-0.15039 0.12109-0.07 0.05-0.12922 0.0906-0.19922 0.14063-0.03 0.01-0.0503 0.0291-0.0703 0.0391l-0.0605 0.0293c-0.05 0.03-0.0906 0.0601-0.14063 0.0801-0.04 0.01-0.0887 0.0403-0.13867 0.0703-0.11 0.05-0.24992 0.12093-0.41992 0.21093-0.07 0.04-0.13094 0.0694-0.21094 0.10938-0.25 0.14-0.53891 0.30023-0.87891 0.49023-0.37 0.22-0.79 0.46024-1.25 0.74024-1.86 1.14-4.2072 2.7389-5.9062 4.3789-0.112 0.1-0.20302 0.21032-0.29102 0.32032-0.147 0.17-0.27981 0.35101-0.38281 0.54101-0.107 0.19-0.193 0.38985-0.25 0.58985-0.118 0.4-0.14198 0.80898-0.08398 1.209 0.016 0.1 0.03855 0.20078 0.06055 0.30078 0.109 0.45 0.30736 0.89078 0.56836 1.3008 0.023 0.04 0.04808 0.0691 0.08008 0.11914 0.048 0.06 0.08767 0.12922 0.13867 0.19922 0.118 0.16 0.25181 0.32094 0.38281 0.46094 0.02 0.01 0.03406 0.0291 0.03906 0.0391 0.025 0.03 0.04841 0.0601 0.06641 0.0801 0.26 0.27 0.53717 0.5007 0.82617 0.7207 0.018 0.01 0.04059 0.0291 0.05859 0.0391v0.0117c0.283 0.2 0.57128 0.3893 0.86328 0.5293 0.296 0.14 0.67423 0.31977 1.1152 0.50977 0.274 0.13 0.57453 0.27015 0.89453 0.41015 0.24 0.11 0.48024 0.22008 0.74024 0.33008 0.05 0.03 0.0982 0.0503 0.1582 0.0703 0.43 0.19 0.89109 0.40914 1.3711 0.61914 0.34 0.16 0.71985 0.32977 1.0898 0.50977 1.63 0.76 3.5304 1.6698 5.6504 2.7598 1.18 0.6 2.1189 1.2218 2.8789 1.8418 0.1 0.07 0.20102 0.13899 0.29102 0.20899 0.24 0.21 0.47945 0.42086 0.68945 0.63086 0.51 0.49 0.92953 0.97898 1.2695 1.459 0.37 0.5 0.65016 0.9907 0.91016 1.4707 0.18 0.33 0.35 0.64875 0.5 0.96875 0.08 0.16 0.15047 0.32071 0.23047 0.47071h0.01c0 0.01 0.01-0.00024 0.0195 0.01 0.01 0.01 0.0115 0.01 0.0215 0.01 0.03 0 0.0388-0.0188 0.0488-0.0488 0-0.07 0.0195-0.1407 0.0195-0.2207 0.01-0.08 0.0212-0.15047 0.0312-0.23047 0.02-0.22 0.0388-0.44922 0.0488-0.69922v-0.041-0.0391c0.01-0.06 0.0117-0.11945 0.0117-0.18945 0.01-0.07 0.01-0.13117 0.01-0.20117 0.01-0.04 0.01-0.0691 0.0195-0.11914v-0.1211c0-0.16 0.01-0.32023 0.01-0.49023v-0.5293c0.01-2.55-0.19016-5.8307-0.41016-8.4707-0.02-0.18-0.0288-0.3493-0.0488-0.5293 0-0.09-0.0115-0.16976-0.0215-0.25977-0.01-0.09-0.0195-0.17953-0.0195-0.26953-0.01-0.12-0.0193-0.22984-0.0293-0.33984-0.01-0.13-0.0312-0.24133-0.0312-0.36133-0.02-0.1-0.0291-0.19906-0.0391-0.28906-0.03-0.37-0.0598-0.69023-0.0898-0.99024-0.01-0.13999-0.031-0.27062-0.041-0.39062-0.02-0.16-0.0388-0.31898-0.0488-0.45898-0.01-0.08-0.021-0.18125-0.041-0.28125 0-0.08-0.009-0.14829-0.0293-0.23829-0.01-0.14-0.0308-0.30093-0.0508-0.46093-0.06-0.53-0.12899-1.1704-0.20899-1.9004-0.02-0.18-0.0403-0.35907-0.0703-0.53907-0.01-0.14-0.021-0.2914-0.041-0.4414-0.01-0.06-0.01-0.10992-0.0195-0.16992-0.1-0.9-0.19883-1.909-0.29883-2.959-0.08-0.77-0.14094-1.5611-0.21094-2.3711-0.05-0.52-0.10086-1.0388-0.13086-1.5488-0.02-0.25-0.0388-0.49024-0.0488-0.74024-0.1-1.27-0.1707-2.5209-0.2207-3.7109-0.01-0.43-0.0293-0.83828-0.0293-1.2383-0.01-0.45-0.0195-0.88078-0.0195-1.3008 0-0.43999 0.01-0.84976 0.0195-1.2598 0-0.16 0.009-0.32094 0.0293-0.46094v-0.10937-0.0606c0-0.02-0.00024-0.0386 0.01-0.0586 0.08-1.56 0.20133-2.9999 0.61133-4.1699 0.05-0.15 0.12946-0.28015 0.18946-0.41015 0.22-0.53 0.51015-1.0202 0.91015-1.4102 0.1-0.1 0.21985-0.19125 0.33985-0.28125 0.12-0.1 0.21961-0.19906 0.34961-0.28906 0.01 0 0.0212-0.009 0.0312-0.0293 0.12001-0.08 0.23961-0.16023 0.34961-0.24023 0.13-0.08 0.24914-0.16047 0.36915-0.23047 0.02-0.01 0.0408-0.021 0.0508-0.041 0.19-0.11 0.39007-0.20836 0.58007-0.31836 0.22-0.12 0.42868-0.23007 0.63868-0.33007 0.2-0.1 0.39984-0.20125 0.58984-0.28125 0.17-0.08 0.33023-0.15977 0.49023-0.25977 0.34-0.21 0.62125-0.47047 0.78125-0.73047 0.02-0.01 0.0291-0.0288 0.0391-0.0488 0.01-0.01 0.01-0.0195 0.01-0.0195 0.02-0.04 0.0212-0.0813 0.0312-0.11133 0.04-0.09 0.0801-0.17976 0.0801-0.25976 0-0.09-0.0208-0.17-0.0508-0.25-0.01-0.02-0.0291-0.0405-0.0391-0.0605 0-0.02-0.0115-0.0291-0.0215-0.0391-0.03-0.05-0.0691-0.0906-0.11914-0.14063h-0.01c-0.15-0.12-0.38141-0.21906-0.69141-0.28906-0.03-0.02-0.0496-0.0213-0.0996-0.0312-1.78-0.35-3.519-0.51-5.209-0.5h-0.01zm-60.652 49.83c-0.639-0.08-1.3479 1.4097-1.9609 4.4297-1.154 5.73-1.8212 7.3314-3.0352 17.691-1.101 9.4-0.10547 29.56 0.89453 35.4 2.387 14.05 16.954 41.14 17.689 38.26 0.725-2.81-11.378-21.441-8.377-30.221 1.556-4.55 8.2092-7.9408 12.533-8.0508 7.205-0.21 4.0928-1.87 2.2148-5-1.242-2.07 1.2073-5.6497 2.5723-8.4297 0.755-1.55 0.06711-4.1088-1.3379-5.5488-3.911-4.04-13.621-12.57-15.891-16.5-2.254-3.9-3.2121-6.5907-3.5371-13.971-0.235-5.29-0.94362-7.9706-1.7656-8.0606z" fill="#081e3f" transform="translate(0 -.00044250)"/></g></svg>
